/* XPM */
static char *result[] = {
/* columns rows colors chars-per-pixel */
"35 53 15 1 ",
"  c #430000",
". c #470000",
"X c #5B0707",
"o c #670B0B",
"O c #731313",
"+ c #8B2323",
"@ c #8F2B2B",
"# c #9B3333",
"$ c #A73F3F",
"% c #B34F4F",
"& c #BF5B5B",
"* c #CB6B6B",
"= c #DB7B7B",
"- c #E78F8F",
"; c None",
/* pixels */
";+$&***************************&$+;",
"X@%%%&&***===*=========*=**&&&%##@ ",
"XXO+#@@$%&*==-=-----==-*&&%#+@+OXX ",
"; oO++@#$%**%&**==**&&&&=*$#@+OoX ;",
";;   oO++@##@#$%&&%%#$#$$#+OOo   ;;",
";;; oOXoooOOOO++++++++OOOOoooOo ;;;",
";;;XOOoO+++++++@###@@+++++OOo+OX;;;",
";;;;XoXOOOO+@##$$%$###@+++XXXXX;;;;",
";;;;;   XOOOO++@#$#@++OOOOX   ;;;;;",
";;;;; OXXXOOO+O+++++O+OOOXXXO ;;;;;",
";;;;;O+OX+$%%#+#%&%#+#%%$+XO+O;;;;;",
";;;;;O++O#&%$%#%*=*%#%$%&#++@O;;;;;",
";;;;;XX+@##@%&$&$%$&$&%@##@+XX;;;;;",
";;;;;OO+O+$%*##*%#%*##*%$+O+OO;;;;;",
";;;;;O++O%OX+%$O+*+O$%+XO%O++O;;;;;",
";;;;;;XO@O$#%*&%&+&%*&%#$O@OX;;;;;;",
";;;;;XXXO@#++#+O$&$O+#++##OXXX;;;;;",
";;;;;XXO++OXXXX+$%$+XXO+@@++OX;;;;;",
";;;;;XXOXXO+@$&&&&&%&&$$@+OOXX;;;;;",
";;;;;XXX XXX.&==--=*&%%$#+OOXX;;;;;",
";;;;;XXO+ .X ##%=%*&=&#$@++OXX;;;;;",
";;;;;XXOXXOXX$=*=*&%&&$$@+OOXX;;;;;",
";;;;;XXX XXX.&=*=*&#$%%##+OOXX;;;;;",
";;;;;XXX. ..@$=*=*&#$%%##@OOXX;;;;;",
";;;;;XXX+O.@$%&*==&#$$###@OXXX;;;;;",
";;;;;XXXO+@#-&&*==*$$$+##+OXXX;;;;;",
";;;;;XXXXO#=&&&*==*&&%###+OXXX;;;;;",
";;;;;XXXX+$&%$**==**%$$$@+OOXX;;;;;",
";;;;;XXXO+$%%&&*==*&*&$#@+OOXX;;;;;",
";;;;;XXO+#$$@$***=*&=*&%#+OXXX;;;;;",
";;;;;XX @#&%#$&**=**=&&&##OXXX;;;;;",
";;;;;XXO@$&%#$%&*=**=&*$##OXXX;;;;;",
";;;;;XXO@$%%$$%**==*=&&%#+OXXX;;;;;",
";;;;;XXO@###$$&**==***&$@+OXXX;;;;;",
";;;;;XXO++#$$$%**==%&&###++OXX;;;;;",
";;;;;XXO++$#$&%&==**=&%%#@+OXX;;;;;",
";;;;;XXO++#%$&%&=*&*=&-%#++OXX;;;;;",
";;;;;XX+##$$$$$&=*&&*&%%$@+OXX;;;;;",
";;;;;XXX +$$$&&*==*&&%&%#$+OXX;;;;;",
";;;;XOOX +#@#$&*==**%%&$#$++OOX;;;;",
";;;;X+++++#@#$&*==**%%&$#$@@@+O;;;;",
";;;;XO+##$%%%&&&**&&&&&&%&$#+OX;;;;",
";;;OOOXX+@$&&*==--=-==*&#$+OXOOO;;;",
";;OO++XXOO+@##$%&&%&$$$#+OOOO++OO;;",
";;O+@$#@@O++++O@@@@@O++@+O+##$@+O;;",
";;O@#@#+#%*&%%#%*=*%$%%&*%#+#@#@O;;",
";;++@#+@%&&$%$$%&*&%$$%$&&%@+#@++;;",
";; +##+$#%$#&#$&$$$&$#&#$%#$+##+ ;;",
";;+#X @#@#%*#+#*%#%*#+#*%#@#@ X#+;;",
";;OX#%+O#+X+%+$O+&+O%+%+X+#O+%#XO;;",
";;;+#O@#O$#%&#&%&+&%&#&%#$O#@O#+;;;",
";;;;+OXO@#++#O+O$%$O+O#++##+XO+;;;;",
";;;;;;;O@@+X  XO@@@O   X+@@O;;;;;;;"
};
