/* XPM */
static char *hell_bricks06[] = {
/* columns rows colors chars-per-pixel */
"128 128 64 1 ",
"  c #040604",
". c #444E34",
"X c #242A0C",
"o c #6C7254",
"O c #442E1C",
"+ c #6C5644",
"@ c #444244",
"# c #1C1A1C",
"$ c #5C6244",
"% c #343E24",
"& c #8C725C",
"* c #543E1C",
"= c #645234",
"- c #342A14",
"; c #4C361C",
": c #7C624C",
"> c #2C1A0C",
", c #141214",
"< c #7C7E64",
"1 c #9C866C",
"2 c #5C462C",
"3 c #54563C",
"4 c #343634",
"5 c #140E04",
"6 c #2C361C",
"7 c #44321C",
"8 c #745E3C",
"9 c #4C4A4C",
"0 c #242224",
"q c #646264",
"w c #3C462C",
"e c #947A64",
"r c #543E2C",
"t c #5C5A5C",
"y c #3C2A1C",
"u c #4C3A2C",
"i c #846A4C",
"p c #2C220C",
"a c #7C7E7C",
"s c #0C0A0C",
"d c #4C4E4C",
"f c #2C2E2C",
"g c #747674",
"h c #444644",
"j c #646A4C",
"k c #3C3A3C",
"l c #64523C",
"z c #4C3A24",
"x c #1C160C",
"c c #A48E74",
"v c #5C4A34",
"b c #545654",
"n c #443224",
"m c #745E4C",
"M c #242624",
"N c #9C7E6C",
"B c #544234",
"V c #3C2E14",
"C c #846A54",
"Z c #342214",
"A c #848284",
"S c black",
"D c black",
"F c black",
/* pixels */
"x###0#0MM0##00M006######x#0#0#,M,,,#0M00M000#M#00###p#####pxx######0###000#00##0##########,,x##0#########,xx,,,,,,,,,,,,#,,##,#,",
">0MM6w%%%%%%64%%64M0MM#MMM0M6fM.XM6#MMM0#X##X%wwppp6-p-MMw%-fM06Mf%6MfM6%f6Mf#6M%MMfMMf6MM##MfMMXMM#M6#M##M0MM##M#,####M0##6#X##",
"#M6%6%466%466wM6%%6%6%MMMM%646w.xp#M06MMpXp#p%6%%-p-66%6%%%460M%06wM4M6#MM4%M6%6M006466M0#M0MM46M0#M##,#M###0#M#0M0M####M#MM0#X#",
"#00MM00M4%66%k666f%666MM%46M6%%%0##MMfM0p-pp6w466pp6p%6p%%%6Mf0##MM%#0f#0%f666%4M6466%6f00##M6%6####M###M##M##M00#0M#####MMMMMMM",
"MM0M%M0f0M%6666660w%M#0%66%6ww%ww0MfMM4Xx#M-6-pM%0X--w%%%46MM6-#M.066M6#00f%w6%f%f6%%%6MM0M0MMM6M#######M#X0M#0#M000####MMMfMMM4",
"06f466pM6M666-466wBM0Mw4M#%%6%vwf0M6fp0X6M%6%-pp66--6-%d66%666Zww66%.%.%%%4%f4%%%%%%66%0000M%664M#M##xMM######M0MM0MMMMM0M0M46%6",
"##MM0M6%660-MM4p.%6##66#x#M6-f6w6pM46pX#w0%6--p%%%%MM--6w%6Mypwz%w6%%z%%%f6M6%w6zwwwz64M0M66%w6w66MMMMM0M#MM0M0fMMMMMMM600MMM%MM",
"Mf0##0%6fw%k.666%%w0M0#00%604M46f#-6MM##MMMX-66%p#0pppX0-6Zp>x6%w%Mn#6%%4M6n4%%6%%66%w6%kf6ww%%36w0-M6fMMM##06MMM%6%MMM0MMM4M%%4",
"6w0M0#66%f%%w%%k3%000##p66XMMX6%6#MpppXXM6-X6%6-xxMMM%6-66%ppMw%-00p-#Mf6p6M%66w66M%%66%ww%w.Bww66%6%w%%6M0MMMMMMMMM00000MM6f%w6",
"4MM00MM4fuh%..fk%006M0XXM0%M0MfMM##x##pXpXM-6p#ppp%p0666%6666Mw%Z0f#X#6X64MMf4%w604664%%ww96..w6Z%3.w%6%%66M6MMfM464M##M6f6fk%%%",
"6fM0M6w%kw@k.w.%f%%M0%6666%606%4-#M0xx,pXX6##xpMp#-0p6466646%M46p60#-###XM60066%z6ww%66%B%3$3ww-0%66%6466w6%6w%466%60##MMM4M4fnk",
"##0%.w%M6%4..Bw.%%6##666%%4wwkw60##M##0#6-Xx#XpppM#0M%6%y6%6666-%-0pM-M-p-6fM6%w66p66%6633w36%wM%%%.B%%664M6%%%w%6M60M0000-Mf.w4",
"#M#M666%%k%.3%wV%6%06M%666%wuk33%#,#x##5pp#p##pp-MM-6%66%66666%p0MpMpXX#-M060%%600M-pp0%%6w%ww6p#6f..%666%66%4%w667M%00MM##0Mwww",
"M6%#6ww.36.3.kMX6f6M%%%Mu6%%wwb$w###xxx0#x>#xM--%6Mw%6%46666M66#06f#####M#pMMM466%XXX>XM66ww%Z64x06w6.%%z%w%u-%%%%6M00MM6M0M646%",
"MM66%f%7w%.w..-6f664%.%%f6p%4ww$%#M#x0#x###,##p%6w%.%hfw%66nf600#x###M0##pMp%0#p#M6M0#0#fww%#M6%#p%%9$w%.w%%%60%%66f0##0MMMMfM6%",
"%646%%6.f%wBww.66fw%Bwww%46--63.%-0pxxxxpXXp-M%6%.www6%%6#%X-6MM%p#Mp0#MX0--6p-6M4wM664w.wB-MM6pp6ww3www%%.w.%MyM60MMM0MM6M46M4w",
"ff66M6M6k.w6wX666wzkw.wB%%%6MM...6-xpx#Xp-666-6%%dw%%%%%%66064wM660#MMM00MMf0MMM%w%.w6w3..%--pM##p.w3%766f...Vpp#f64M00MMMf66Mw6",
"%%6Mn46%39%6064k%w%hwwww%%6w-ww$f6%pX#MX%-6%6%%.n;%%w%B%%664w6%66Mfp##M006MMM46%%%%www....6MM%%%#w%M%.66.6v.w%-pp6%6%M0MMMMMn6%%",
"46%%-6www.%MM%k.%6%..ww%6wM66633f66ppp-6666%-%%466w%O6%w6n6%6w%6u6M#pp##p##M46%ww%4M%ww%6%V0--4wp6yw%M0M60%.%..--f6%66M%M46%k%%%",
"66%646w%w.wy%kk.%%ww.w%%666w%OrB666-#-6%664-6;666w;4%6%66666%%6w6%0M#pX#ppXpM6Mk3w%%z.%6766M#Mp-pM66M6%-pM6w%w%wpM6%upM66M4%%464",
"f606M.%%z%wkk@ww@%%wz%.6wZ%zw%33-6VXp-p-%%6%%h%%Oyy7%6%6%6%M6%@6%k64#0-0MMppM#0.3..w.w0fM6-M#p-6p%6MfMM6M46M666f--%666%%6%fy64MM",
"M0M66w%.%%6%%k.%wB%%6w%w;p%%%%w..6---p-6666-%%7O-66O6%%466-6y@k%f%400M-6MM66%6w3w%w.w%%6%%0#M0-6M%6y66n%w%6My%4ww66%%6%46z%k066#",
"60%6Mz%w6Mfw%w26.%6%6%w.r-rr66w.V6-p--6-6V--6%7yO%6y6wz6%-p-fM%%w666MMM%6M6f640w.3.uw%%%46%60M66%6M66%%%%k6%6f6w.wyrr%%6%6w36600",
"%664%6pMM%%6%%;%%w%6%.3:v;Bvr;2264%p-X-6np--p-7y776OO7n6--#0p6%66MyM0#66fkf%466-3..www%%M%%%46%6M4Mfy6%%%k%64M%f%.66w..%66.w.w%6",
"64M6-0MX4p64%%4-%6%%33j33+v+llBvO6ppp-p--p--%7ww6;ry-%w%6-ppX66My600f0f%wkf%6wfM3%%3%w%z666w66%-M%6p646w%%4%400p6%w6w6664%w%M6M4",
"M-66Mf66606w66V%6%%2v.3.3++l2r3$64p--6---Vp-77;77;O%-%%%w6p-6-wyppp#6M%w6%%%%%6Mw%.w.%6%6%46%%w6M%w6466%%%.3.%6%w66-%u%%6%%76%%M",
"f66%6666%6%%w6V6w222v33==$3rBr++%-pX-6%Vunp---n77%u6;%%y%6p-pX66---6p%k646w6%w-w%%fz66664%6M%.367%%w6f66u%%w.33.3.w4X66%6w%%66%6",
"666M66n66%7%%6-w$vr*33r*3$$l33+$w7pppp%yOpx----V;-wwn46%p--p-pp%%6%666-6ww%k%6f9ww%6%%6w6666B%wf%fM%%M6%6%6%w%w..v..6p%w%zw%%%%M",
"6467%--6w6f%6%r3+2=rB2rz.w333$o3u3-p-nn--pxXp--7V-w%;O6%466p6#--6%604%%p%%%%%%%.v%%%%%4%66-w%.wV6M#M4XMMM666%Bw*www%666%%%ww466%",
"%-f6666-4w36%w%.3**;*7n*;u+.3=+$7.6-u:n%-ppxppVVn-7r%-66%-pru4MpMMp6.ww%wu6%n%ww%%%kw%fwz%Mw..6M%w66M%6M0Mn%66w%%%6%%46%4--66604",
"%.666.%;%.w7w33333zn2z;r222v+882-w3u;2=2--VOZu;znv7nr77-V-zup%6%w%w%.3.+39dwww%w%%wk.v3.$...3..M4.....B.wwwwwwww.ww..ww%%w%%w%..",
"333333$++3l8:o$.3$33*2=lv=+=8B+v7%V;*V*z7zv*v==ii:=+88*3v;n;nB=v+3$3+w..$j$j3$$jr.w.ww33w.3..%6MM.%%V6%.33333333.3wBw.333$33..$3",
"#MMM0Mfkkkkkkf6%MfM0M%4%hk44k4f%40#M6fM-6%k%%44k4f4%MMf40M0M60Mkf0#0###-ff06f6f0#####MM0M0#Mx>#,,>,,55#,>#xp####Mx,####M#0##0p#6",
"M66f6MMM46wkkk%6%66fM6kk3$.w33@.3w9%khwB;w...kww@k%%f446M4MM%Mf36MMMfMff%%%6%ff6M00f0MMMM6%6MpM%x##,xx00M##MMM####x######M0####.",
"#fM6M0MM4%w%%ww%@w%%4%.w3$k%%www3..w.33.Brr.w*w.ww%%%6660M%MM4%3f044k@k%kk%M%%M%4M00MM%M0M6w%%6Mx####x#-#66Mp0##p#0x#X,##MMMM##%",
"#M40yfMM%6%k%%%vwwwwwww.%wwr.3.*33@.333$.2rw%wwr*w%4w60MM000M66w%0Mkkw%kw4%4fM4f%MMMf6666MM%w%60p##px>X#XMf6MpM#pxpp#,x#X6MfM#M%",
"060M0MM0666%f%.w.%wBw.B.wkk.2r.23.3393.33w.%w;%w%;-66664600Mw663f%%ff6kk%%w%6fMfMfMfM6f64VM%%z%fp#MMx#Xx6066%Mpppx0x####000#M##w",
"MMM#6%MM46M0fww%ww.*....www..w.w9333w....r..w4;%n47%6%p0fM633.$3w%fk6%6%%4%M67MfM6f%uMf6M666y%6pppM0ppMppp64p6ppXp#X##X##M0#M0-w",
"#MM%0M%%%%606z%%%k@..ww;*w3w..3...3$..332w;w.%www%%664MM6w3o$33.k9%.%%%%f60MM%66Mnfw6666-M%4-p--6M66M-p----6%0#px###p#pp#0M#0MX%",
"0MM6M6%y%6676fw%w%ww.w%6466%.Bw*....96.9*k%%w%wB%w%6%%k%4.$3.*$w%.3.3w%u6006%6%f666MM%46M4%%O-MxpM%%;y-6-M-67pppxx#######M##0#-w",
"M4%M6f%646%%%w6f6w%Bw%6%O6O%%.w.%.%27OV.3nwww.ww.%%wu%@63333w%w%6999.%%w%%wfM%646%M46f66wMf6f6---pp4n%6-p--w6-p#x>xX0MMM00#M#X#%",
"#%664646666w%%w%u%w%%6V;6-O%w;w.66%%%;yO%;y%;.32..wwww%$$o3...3%M.dddv6wk%6My466%%6-%666%%%%%%%-M-6---%%ppp-%6pMx#MppppM0Xp0M0Xw",
"6%66%6M66%%%%%%%%%66%6-66p66w;%6%6y%w-66%;%%wr23k@www%.ooo$3232%fw$333.$ww%%6fM6M7%w666n6f%f%w%6-6%pp-uuV-p-6B6pppX-MpX0Xpp060#w",
"66666%6%%6uk4w4664%66666M4%%%4%%%6O%%w0;f4n;4wrkw.wwww$o<<j32$3%4w.333$39M64MM-M%6-666%6O4%z%4%%6---XOu7%--p63u%646-----pppM6M6w",
"k%46Bw66y%MM66M%666666%n6w%7-%6%%66;4w%O%%w;y;w%;%%Bw3<oojo<o$j36w3..33..%66MMM6yM%%%466y7-ww%66%6%6w.r7--V-67uB3%6--X-ppM6-6#M3",
"k.M%%%%4666%MM6%%%6-46w%%66M6f666n6OyOwO7O;%%%%%y--ww$Cooo<1$$ohX.dww....%%%6006%6666p466O6w66666666.www%Vyynw;7z..-----p66M%6f.",
"h@Mw%w%%6%%%46MM76%MM646w6%6f6O6fw667%6%O66n%k%%6%yw7:<<jo&jv+j3Mw%%Bwww3.%%7M0M66y6MM67%76%666%;46%3.ww%4Oy;wu;n;7-6%6--6%MMM%.",
"kM%ww%6%66%4%wMM%6%f4%w6666-6OOwk%4;n%w%;yfM4%w%%%%%2Ce$+j$$+v3wx%%ww6%%..V%66#f64%64p-6666O646y-zv=r%%%;6%%.rnu;wrn-------Mp%4w",
"fw@wB6w6z%w%666M4%%4f%%@k%%46Oww.ww%%%.;@%n%4%6u%w%%o<oo&+lo+3$w#%4666%%.w%6%M0666--Vpp%%64-6%;66%ru*;;O;y%%rr;nnrru6p-pXM6-%Mp.",
"%6%w%ww%%wfw%z%f%6k%@ku.@w%wO6ww%w%ww%%w%%.66M%66%4.:j$ojljjjoj3#6%MMM6.*%ww6#646Mp6M-0646%-M-66y7*nOnnnn7O7wu%%ruur;ppp-pM6M4p.",
"%%M%%.w%wwwww%%%%49w9@dhhw.w;%%B%.%Bw%6fM%4M-4%6w%%r+$$$v+:+joC.#%wwzMf664%kkM0%60-%-pp6%66%6666Ou%46;r%n;7nw2lk%4yuu6--pM##M%pw",
"4%4;O%w..www.%%%%4%.w.@@k@.wwk%..w.w%67w4%%6466%f%6.oj$$3$mm+Ce3##w3wwwf%6%%fM06V-%Mp-6w>-6M66%6r367%wn%h%%.wrBr6%6-4666#p#-p0Mw",
"%%%-O%wv.*%Bw.w%%kwvkb@@%.k...w%%ww%6%f%%w%f%664%%;v$:v+$:+C&:&.#M%w%wf%f6%0#0M6p6%#M-M06--M06%r%rOn;hw;w%wwwwr3%%%6%6%-#-XppM0.",
"%M4067ww.wwww%%B%.www@@3.w%wB%wwwz66%w@ww%%f6%6%u%r+:v+<Co:CC<o.#ww%4%fyw%00p-fM0-M-MM--M-%--%32rnyO6ww%ww%%w.wwO6666..-p0-p-0Mw",
"f66MVyOw%w%%6%6%.%wwwww...www..w%%0w%w%wwzwkwzh@w.++:j<<1oog<o&w#%%fMfw%ffM0#00000Mf00-MMM---.w%%%%46%.ww.Bw.ww.664%66;-#p--6M04",
"M6y66-67%%w6%-47;%.ww....w..w..*%66wwvw.w44khkh..+eCm+ejCg<&<oC%M46%yffff40#0M6M0%M000#0-6%6%%w%n%w%6%wB..%%%%wv%%%6%646p-fM46%w",
"%%0p.;%6666z%667.wrw*w2*.w*..3.w%www...ww.h@@hb9$<eCCjoCee<<<ook,M0%MM44f4##0%00#M0MM6M#%wwfw.B66%666%.%w..w%%..%6667M6w%M%664%3",
".w66;O%Mw64%%w6;.r2r%..rw.....3.%w.@.w.uw.%w.@h3oce:j3<<oC<C:j<k#M#MMfMM00#M#0000#Mk%k%fww%.4.f%w%%6%%%%ww.%%zw.w66w%%%.w%606M6w",
".<%%%46%%w%-6%4w..rr%%%r;r.....w...3...ww%%%...3<<oooo$$<oo+o<ah#M###M0##########M4f%fwf%f%%f66466%46ww%%%%z%%%w6666%66wfw64fM-k",
"ko$46%-%u6%6%%%w..rd%n%%w.3.w3...3Bw.=hzw66%w4.3oojoojojjj$o1A<wM%M0########M###6w%.k6%4MM6z6fM6%%4%667%%z66.%ww6%n6%-6uw%w%#0M.",
"fw$$w-6%ww.%%M6%www..w%r3joo=33.w2.3w.3wwV-w6z%2$$$+3$j3$3jo$<o3#%%0MM0f6%###M#M%k%6wfX0MM46f0#646666M6M6%6%k6w.6%6w646%%66%f0pw",
"w@.jo36.$jj.%u6wMz%..o$j<Njj<j$...6w.%%.%-6.%4h33vvw3j$3$$jgo$.ff6666f6%.k0#M##%k6%400#M00M00000M#MM-466%%%6w%%%.6-6f%.w%fM%M66w",
"@3@.$oo<o$o<o3.w@..j$$$qA$$3o<ooj*w;7r.w63ww2$v3Brn.j$3333$j3MM004..3333.%f64MM4f%fMM00MM00MM#0M6MM0pMf0MM4-6M6%9kk%%9.w66nfM%wf",
"k.9tj$oAo<jooj$$j<<<Ago<jb3j$$ooj3*B+$3*3$3%ww.$3uBrjl...w.w6Mf%%%..33.%w-y.%2.k.f4-0M#6%0p-6pppp-p-%66O6677w;%v3.*r2OwwB6--%;;4",
"6w6%...r3w.w..2nw....w.%666fnB*%ff40M%0##fM666@4w6k6fw%kk%wkk@%664wwwfMfMf%wk%kfff-0M-M00#x#M###x0X-00ppp%6-64-%w.9wn%O666--%667",
"6%%ww*22*;r;2.;7rw.*w*r%4%76On3%4.wM66M00#p6%zk4666%%f@4k%f%%wk466%ffMf6fw-M%.kk4ff6Mw4#0M##%%#6#M6w666%p66666-p-w337OO6%---6%w;",
";7O%.wrrnururrdw.r..;%w%%-y66%3w666%64%M-M6%%%6.6%4%fk%.6kwk%@66-6%%zf%fuf4fh9...k%fMf%%%%MfM##ff-66p--6466V-%--y-66rnyO--6%ww%h",
"77-6ww..r33runz3w%%%7rw6;y--6w3*6x0%%6%%6w66%%%6M0%66%@%k4k%k.6f6%%wwwwww.%w..w3kwf4%ff%.M0M0#Mf6#ppppXM-p---p-66%w6VrOnV-%.%%%%",
"6--wwwv.3BBrwr%.w%;7%%;n;n6--63.M#66%y6%---6466MM000M@d%%%4wwf646f%%%%%%k.w....3.wkM6ffn%h0##xM6p>pp#xp6f6pp666O676%%ru;76%664w%",
"%6%%%.w.Buww.%ww%w;7r6kw;6rw%r33MM%66%-p6-O-.f@p06pM%%.u%w6%%f%%%ww%h%%%%..3.h.@k%fpM4f4d.-0#M0.pxxxxpppp6%p-%-6.Op%hww;64-----6",
"w6w%6;ur7rw...wwB%7n%%%%nn;%;w:BM4666yVM6p-7%%f646%6wu%66M6w%w6%wz..wwB%ww...B@k%%M4fkfk.%fM#wwwxx>xxppppp6pp6Mw%p--%%;O6--p-76O",
"64-646;w;Orr2w%.*%%--4%%%rnhn;r6%6y666-%%6%w-%%6%w%%w6%-%46w%%6z%w3....w.3.3.h.k4ffffkfh.%f.6#Mwpxxxp#p-Xp-66--7---;-p-%w-X--%--",
"---p-7%;.h3u;uw;nwy6--66wh%ww%h%%w66%%y6%w;%6%n666%%%%w66%6rO;4.u...3..=33.w.u%fffkfffk.%fw%k%%%-ppppppX---6wn%%-6--6w6%%%V-6%%-",
"6---6.wu....;uww%r;y777w%;w;rwz76%w%OOy;r%wy6%6MMyMun%6M%.rr.777.$...3..33..wf44ffkkff%kff%fk%fkpxp-VXp--y%6--64%;-p-%w4ww7-76--",
"----6%wwr..*nr.rww;nw%%*%%;wuwO-64%%;ww;O%4766-f---X;746%%%.3rn.*3...w..3vw.%w%%ffffnkk%wykfkk%.-O-------66Op--66%6%%66www-7---6",
"V---%.w.*rwww.2.3.%hw%ww%47%466646%;nw;6r-6.*46M66--O6y--6;4.z.3u$$.w.w33.ww%%ffnfff4kkkf4ffkf%6%-p----6--4--p-%%6un%4-6w%--666%",
"76-77%;r2u;hw;nr3wrww6w%%6OOy6V%667Vn.hw6p-.w%6O6%-%66-O-66%w%3.Br3.wv.wwwww%z%fffkkk444MM%f@6Mw0pp--Xp-66%---ppyry-6w66%;-6w6%6",
"76V7V-7u7;Owwrrd*r..%;7y6%7-6w%.w.6On..%0-6ww%%%%Mw6-66-O64w.w%.r....*wwwww%6%MMfk4k.k.ffffkk64.6p6%-----w%6---6Vy4%66%w%-p-6--6",
"%%V6-VOw;nO;wruz...ww%%77%666.2.%%r%4wf6%%4%.wwwww%;r;%%%6ww%wB...33...%%%pfMMM0Mfw@@.ww%4kffw%.Vpp-666-VV%66V6%-VMw%6ww6V-----6",
"n%%%n67.uunnww%w.3;2.B%..%w%ww%vw..ww%%ww%6%%w;Orwww;4w%%%ww7%w.3.....w%w%%f66yM4%%k.k.k%fkwf9%.p>-6--w6OV---6yVpp-6646%%O--6---",
"w646%7;ru%%hwwO6%%h....wwwwrww..%w%w366uww%%v664frrruww%hwz%%ww...3...w%%%z%4M06%f3k...wwn%.fw.3pX66-666yyp--Vf6%-6%%6;%%7---676",
"w7y;%w%%%%%.*O;;46.ww..%ww.%v3.%66%w3z6w.6;%wwM666r..ww..%w6%..w...w.vwww%w%wM4%M%9.h.hkwk4fkk-w#p--6%V-O--66--6-y.66;w%n7-V-V;%",
";www;OO6%k.ww*nr.w.ww%%wwBw*w.B%%wz.rw6%66k%%%6%ffrrr%.%*.;.w.w.3..ww.%%%fkw%%f.9wMfwwuw.wdkfkfkf-pp66Op---66----764%46%%%7Vw776",
"%%w;wuh%;;wwwwwr%ww*....w..%w%OO666uw..7;O%w.%%%nn...wf;r.rww*;**.www%wu4%%%%f6666%%w%f%%wk4ffff-6-p-66-----VV---p7%w%;O%.7-7%OV",
"7%w2rn%%%4%%wwwww;2w.w%*%.w%%--60M;w%.Bw;y%w*%4;w...33f%r.rwrBu2u.B.w.%%%%%n44%k%Mn%w%fw9@4fffffMO-pp-----6-6V---V7;www;7%7-Vn7y",
";%nBrr6%%6%;%zwwwwwzwV%fww;*--7w0%%46%2vu4%w%ww%%6w33.rrOrrrurOBB.%ww%%w%%%k%M%%%46.@@.3@fffkuk44y--6-6-6-w-V7Vy7V7%w%ww;nO7%;n;",
"wkrruww%w%%y-%w;%w;r7%w;6%%%%7-w6%%66wvr;z67n.w6%wB33..rr.On.wrr;uw6%z6ku%%4f%%z%f6.kw@.%fykff34M-p---%6-%6p66-ZOy-7%%ww.%776%.w",
"wrn7%%h.w%%%-7u77%%w7;rw%%%4%wOww%r%%;rOur;nV%w;;%.w.3.rr;w.w..nn;%%-M66ww6f%%%%wfM6%M66y4ff444rp---M-6M446p--n77VO7..wBw;%%%47w",
";u;n%w..wz%6pVOV7;;%%n;u7%6;w;w%60M4*;2w;nBn7;;04w%w4*r7nwr.3;rr76M4%%%646f%@%.64%wf66-M4fMh.3.%-zn*6p-w66%7--6%;n77.k%w.w;667n7",
"6hw%..w%rwwVO7n;%7yOrnOu7;n-77;w600-;u;vrBrn47-4%%%.wM2rn;uw.;nu%4%.%%.%w%w.9.3ww%%%n%k6Mfk@3...-Onnn>%.%.rr.w64V7Vy6%wwww;y;7%w",
"6V;%rwzww%%4Bvv2----6V476;-pyOyrM-0;u;3B3.rB3%-6%w%%6%ww7rhwwrn46www%w@w3j33$qt3j.%.wf$f4%3..kk6--V;6X%w32B3Br6---7w.w...w;nn%%%",
"OyOy;%ww%%6w3=uu--7w4676;-ny--ywp-w%4yzr3.nr3+rz2wwv..33;ny;;nw*;2*33.@2.k3$j.$j.$@3..@3@$3$.w%%%---ur%dv*nrru2nV%%.3.3.3w;y4w77",
"n---6hw.%6V23z;n-wBrw6%6-yyry;u;466ppnr.Bw%w.33u;333$$jj+u+r%d3$lBB3..3..4kw@.ttk3...333.$33.wf6-yz2%dw*;uyy.v22..%rw.*..wO-Vw66",
"2v-yr7..www3B*-p7uwB666--yO6n;lz6#--p-3wr;d...*wuv.33$33$$+l+$rw2.dw2...%.....j3...3$r.$2..%w3%.-Ozn;Brzy;n*3rBrv3.%6%w..%767y*B",
"2=lB==o$jojjvrOnBv2Br%%rn%4f*l+wM%xp6%w3w4...*Bh.w...33.33.33.333..k%.wf3..33.k333.3j33.vww....kpZ;unv+22v2rB2un+++3wv$33*v+v*2v",
"vrv+22=3=$+v2vv+l+j$+m:++l.+ojrnw%w;%.%%w26w222*66w2.r.3.B2uz*wnrw..*;Or23.$$2*$=.32w=vr%3.rw.22OyO*B.2B2z*Brzr3rB+v3ljo822*nyur",
"xxpxxxxxxpx>>xxpx#>x#x#x##p>xxxxx>xpx5x5x5x5xx>x5xpxMpxX#xxxxxxx#,#0#######pM0####,#x5s,,,x,>,,,5,>x,,5s5x5,ss ss,,x,>,x,,#,5,,p",
"ppp-Mp-#xxx5xxx5Zx555x,xXx5x5#x>xxxs55xO-xxZ--xpx5---6#>xppyppxp##f000###MM0MMM0##,,xs5xMM#####pxp-p0pp#x##p,x>x,xxpp0MM0,,,#Mp6",
"p-p-w6pppp>xZp>Zx>xpp>xpp>x>pp>pXp>xx-pp-V-pppV-x-6pp--6X-Oy--pxfMMMMMMMMMf4664MM6-0#5,>6%p6MMM-pppX6--p----M---6xp6-66-6%,#M%64",
"pVn--7--pppxppp-pXpppx5>pX-,xM-Xxxx>xxx%pppxppppp%-p%-7p%6pp7-7pMM0MMMMp46wpMf006fMMM>,#666-%%wkV----66-66-xMp-46%X--MXXpMMx0666",
"p6%V76w-xpppp>--ppppp#xpX0xXxM-xx>5xVpsx-#x>Xp-yww-pp-yp-%--uV7xff0000M6w6wpp-0###M#M#pM66%66wwww66Bu%%%pp#M-pXwzn-M6--#M6#,#w6-",
"p6677---x6pppx--X-pMxpp-x5xp-pxxpx5xpXp--xxp6un%%V-Vy-pp-7p--7--M0pM##p-6%6pp-pxx,##MMXX-60M%w9M7O2u27nVxp-6pppy7%.%%6M#p6###6#%",
"p---V-7pVwy#-6px-p-->--xp>xx>pp,5>xpppp-y-pw7%77-pp--V%6.n-wz77-f0-p#ppp%-6--pppx>x,####XM6M%w0%w77;n;p--pX--ppVn6ww%6%6#f#p#M6M",
"xpyp-zVz766pp--XpppX-Xx>ppxp-Xxpxp#ppM>ppO6--%7-pp---%urnB.n;z;V6##pxxppy-6ppp6#pX#MMww#M%%46606wn%67y--ffpMnpMOw-666Z%%%##M###M",
"p-n----;-6w%--xp-ppp-pxxXpppppx-7V-%w-pX06-p------6--vn6.z7n%.6xw#xp>#x6--p>xpp-xpp66%6w%6%#66fMM6yp---py6%--%Mpw*%4p-66-XM#Mxp%",
"pnOp-7V7-66-V-p-fp---pxx-pp#px>-Vp#ppwnppO77%6Vp-67-6%w%;O77%%rV66p#-6V6--xxx-Xp>xxp%66f0wwMM0M4MM##pp-p%w%u-pp06-7*p---p-XpX,x%",
"p6%%7nO-V%-O----p-pxpp#xp#pxpxx%ypppx-----6n%w-p6p-6-n%%On%7-7.-0%-x-66--x-x5xxxxx>x#x6M%%46k6#p%0%MMp-ynh6%4x006Xp---p-pp66pXx-",
"p-uz7--6V-n77V-px66p-p---ppppxx--x-p----zn;6ww-p---7V7-76-z7--VOMM-pxVX-Xx-6Xpp>xxxx#M#%66%%M0ff646M4-6-p-%%%MM0466Mp-V--X#p#%%M",
"p7z76V7%-%--77z--7676-6-pp6#>x--p>-XpVz7%7677ppp6z--p-Op%-7--V7760p-pM0xpp-M6p#xx>6-pppxx4M00fMwf6M066.w6M666fM6f6%%%p#-xxppp6%4",
"p-7V-7-ppxpp-*VpVV-7%XpxV6#xxp%VX0xpV%77X46%-6pp6Xxxxpx-66xpV7nV%-pp6MX-ppppypxxxpppp#pp>,,#%6MM%4%6f66%6M6M00M66p--66pxp-px-w66",
">-66;y-p----X-pVZp77-pn7--xpxV7--ppVO67--6%-7z-#pp-ppppV%--7V7--0,ppX#-pp-ppp-x#xppXpp-Xxxx#0f%B6%6V0p0060M0M0M0M#00nOpxxxp>%646",
"p-n7*V6nV-VX-p-VVVV---7z6pX-77-V---6O%n-p-%-pppxpxV--6pp--Vpp-V-,#xpX-pp#p6pMp-p>xxxp#xxppp#x>#M000M0#X#0%MMfM0f00O0-y-->X-Xp--M",
"x-yZyV%V7pX>-VpOn%7np666%-%%p--ppp-p-V-zX%%pxpppp#p----p-7V-Xpp-0xp6Mxpp0xpp>xp-x5xpxxxppp###X##M##066X6600000p%6-p-ppppxp-xp--6",
">pVZyOy7---p6MOV7---n*n..%w%%yVpppV--Vpp7ppppV--X-pp6%7#pp-Vp--7MMMfpx####pXxpx-#xxx>pppppp-6p6#x-MM66%%%0M006y6w---p-#pppppp6w4",
"pX--ZZ>77VV77%yO6V-7z--VO-%-67Vp-fpx---nVpp#pX-xX6--47Vp5xVyp66O#MM##pxMxp#pppp-x##pXxxxx#V66fpppx-66%6Myppw-#p0%-xppxxxppMp-6.6",
"pp-ppp7z7V7V7-p-67--p-pV77-6n7--X-ppX767Vp--6--pp6pp6-pxpp#xp-%.M04##xp>Xppp#pp-xx0#0px>xp--6-666%-p67p-px-ux>p-%wx--p>Xpp-pp66%",
"pZ-#pVV77n7y--p---X->-ZyZV-67-w7u-pVnVO--pp6%-6p6%6p--p>x--pppM.w4M#M,M00--p-pp%-5xM##5,#MXppp6%--6-pp-p-6;pxp-p6p6-ppxp--p%%%w4",
"x7Vp--yZyZ--Vp--7--p--pVOZ77V-7w7---pppp-XpM---6%6ppp---Vp-Vppp;4#00##MMMppxpp6M6x#6-##,#XMM--6%66--pxpxpn-xpp-6,-p-p-xpp-6p6h%%",
"pppM-p-p-pppxpp-xpn-xx-Opp*;*-6%pp7p------p6--%--p#p-7----p-#>0;000##MM#,-#p66-X%M##x,,XM#M#6-p6-pppp-x>xxx>--p-p6p6-ppp6pxx%6w6",
"xyp---O---pxp-6ppX--#%%%nzznn%%-VVpX--6-6n%6w%w-6p##VVVV-7xxpxpy#M6##MM####ppppp-#x##X#XM#M6%-pp-xp#x-XxxppXyypp-#X66-%6M#p-6%w%",
"xpZy--pV--ppppxp---6;6%ww.-%%y--6%p-----76%wn66npp66MO6u--pxx>X-#M6M#MM#X#xxp#xp-ppX#0#M6%M#p--#xp>x-pxx>-nr;u6--V-f-%6M%fpr.2%6",
"x-Zyy-Z7-7-p--p--pXpxp4%-w%-6-----p6%wV%%%w7-ppppM%%%O-zypp-Xx-yMw0MMM####xxx>xppXp--###X#M6ppp#ppX--pp-Xnw-%-rnnuwnu%466;w%r.r%",
"py-O---Zyy-V7nV6wp---p-V77Vpp-6%-Xp-n7p>-%ppppMppp-0-V7-V--nnO77M66#M6M,##xxx5xxx#6p,Xp,xpp%64-p-pxp---646nM4-pnOnnrnw%w%.dw.%w%",
"x7--Z-VZOy;VO7%.wu.z*--V;7p-pp66--pppxx---x#pppp-----pV-O-xpVuB;0f.,#M-#MM,x>Xp#-fp6wM6-MpX%nrn.%n-p%w6#7%-M0M6%0ppn#%6w.w6.3.w4",
">---7V7777V;-nBBr%7--p6-V--pV--77V-pppxp-----x--pz--p-7-VVpp->pV,0M0#pM#x5xMM6.-%7Bwwf.wwuB...%%%.w%36B%%6%6#f%#0X-xpp66z%f6%w%%",
"-V7-7V;7z*V7V7w.%wpppxp-w---X---V.%pp---XpVVxp-X-wnxx-z----VVXy%#MM6#,xxx>%w6606-M-ww.fw%%nw.%%;..%w%6f%66-f6pMXM#ppp-M%%%0666z7",
"p767%.7;727y*y77..p-p6%%%z7nVVz*z.%-6.znVp--X67-7zw-VvV;VZy7*nr7,pM%wMM%p7%%%6M%-00...%M6%6%w%www.%www060#066-#--M,M-MM%%w6-4%6-",
"pz777777VO;Z*77w.6.-p-w-6w-7--->---6.%Vp-zV7p-p7*v*v7-777yV7*V*p#6#4w*6-p76-pp666-%%6%Z6xy60XZp.%6%060MpppX4p,xp#Xxx##X466y6p-6-"
};
