/* XPM */
static char *mcity_wall04[] = {
/* columns rows colors chars-per-pixel */
"128 128 64 1 ",
"  c #040204",
". c #742A04",
"X c #2C361C",
"o c #543E1C",
"O c #540604",
"+ c #745E3C",
"@ c #1C1A1C",
"# c #3C462C",
"$ c #54563C",
"% c #CC5604",
"& c #44321C",
"* c #242624",
"= c #6C4624",
"- c #140E04",
"; c #AC4204",
": c #5C462C",
"> c #9C5A14",
", c #645234",
"< c #3C2A1C",
"1 c #2C1A0C",
"2 c #4C4A4C",
"3 c #AC7A1C",
"4 c #4C3A24",
"5 c #844204",
"6 c #3C3A3C",
"7 c #543E2C",
"8 c #0C0A0C",
"9 c #343E24",
"0 c #845634",
"q c #444244",
"w c #545654",
"e c #4C361C",
"r c #342A14",
"t c #1C160C",
"y c #A46A3C",
"u c #6C5644",
"i c #442E1C",
"p c #2C220C",
"a c #AC6E44",
"s c #744E2C",
"d c #040604",
"f c #343634",
"g c #5C4224",
"h c #6C0E0C",
"j c #242224",
"k c #D45E0C",
"l c #443224",
"z c #2C2E2C",
"x c #141214",
"c c #B44604",
"v c #5C4A34",
"b c #9C623C",
"n c #64523C",
"m c #3C2E14",
"M c #4C4E4C",
"N c #4C3A2C",
"B c #544234",
"V c #8C5E34",
"C c #444644",
"Z c #5C5A5C",
"A c #342214",
"S c #B47244",
"D c #7C522C",
"F c black",
/* pixels */
"zz66q6qqq6qqqqqCzjqq6qqqqqqqqqqC2qqC2qqzpmoooooogg=l6M2MM2M2qC222CqqqC2qqqqqjreeeoge&g5ej*666666f6ff6f6ff6ff66q66qfqqqq6qq666f6*",
"zz6*z6ff6ff66f6C**qCf6CqCqCqCqCqCqCqq2Cfti:e&&o:gv0&fZwMMM2Cz6ff6zfz6qCqCqCC@ro:g=&&&o5o@*fffff6ff6f6ff6ffzfffC66C6C666f666ffzz*",
"**zz6zf**z**zfz*x@6C6666qqqq666qCqqq9Cqz@me***Xoo=Do9qw22q6zj*fzz@j*zqC66C6*1&:ego@@*p=o@*6fzff6fzzzzz6z6z*z66qzzf66666*66ffz*z*",
"jz66*tppppppppptxxzzzfffffffz*zfffff66z@p4o999o4&==s=l6MM2MqCqC22666qCqCCf@p44oeeor**mD:@zzzz6fzzfzzfzzzzz6z6f6*1@p*r**p*ppjzz6*",
"zz66tA&eee4e4ee&1tttt1t1t1t1t1t1tpppp@t1m=gooo4i&osV0Do6qqqq6fz6zz6f6C6zjro:ge&eeDs4mo:=grppppppptApppAp1Appppptpm&mm&m&rmmp666z",
"*z6ftie4e.eee4e.eemii&4&4&4&4mm4eo4oo4oo:444e&r&:s000Ds:=#fffzzeNjfz6fl&m=Vs&ggss5om&rm=5==ggg:g:geeeee4e4eeeee4e.4i4e.eme4<ff6*",
"*zq6t&eOe&.m4O&ee.eeeee.e.g..:......5:=5:eeeem:=sDsDs=,uD0,v:o:=v::o&*e=vs0=sDD>5ee&emm:=:5.o4eg...o4.eee.eee.4.4&.mm.mm&ie<f6f*",
"zz66treeee&eOeeee&&Oe&e.e&rA<eeee:g:=..5o&o4&mg5>D>sg=:D3b,,,+b,++VV,97Ds=:=>>s>>geg==4mmim&egeee&er1Amm4ee.4&eee.e4ee4&mieA6f6*",
"*z66treOe.eeeee4.e.e.e.&mmi.eeeeeeee.g55=eeeog=>>>D>DD=0Sb:#+bybyby30:,vDs=>>>>>>,g5Do4rr4eA&A<AAp11A<Aime.o.e..e.e..e..4merfzz*",
"j66f1re.em&mmmm&m&m4emre.rAiimeeeeeeee4o4ggmgD>>>>s>>0=D330oVVbbyy3ag:V00=s>>>>>5s=sermmmmeemimim&iAAiAA&imrmrmmm&mrmrAeeeer*zzz",
"*6qztreerm4e4eeee4eee&e&pxx@@@@@@@@@@@@@@@&oos>5D>>>>VDsS3b4,VbVVbbVo:0V=oV>>>>,DsoerX****j**jj*jjj@@@@11rAAAA<A<i.&AAA<ee.<@*zj",
"*f6p1i.er.e.e.&1p1rp111@jz669zf9f96969696*@eg>>>>>>>3Vs5b33D,v:7Nvvv:,ybs=s3>>>>>s=gmz@z6ff6ffzzzrz**fzz@tttApppp1mm<immee.e<jzj",
"fjpreee&i.eeemt@*zj***jXqCC66z6f66C6666Cq*ro5>>>>>>%kD*s>VVDDD0,v:4:s0VDViXb>=>>>5s5em@*6f6ff6zf***zz*z66zfzzz6f**1Ammee..e..ij@",
"zrAe.e.e&.e.er@zqq6Cq6qqq6ffffzzzfzzz66Cflos>>>5>c>3kb9=3>s=s=0VDDs=sssbD<gV>>>>>>555ez@*fzzzzzz**j***z66qq6qqqq6ztAeeeeee.e..4*",
"zri.eee.m.e4.1@9qff6f666ff6fzzzfzzfz66Cflo=>>>55>>%>333by0,Ds,,VbyV,,,+y3>33>>>>>>5>>5o<jz6zzz6z*z***zz6fzzfff6f6z1m.m&me.4eo.o*",
"frm:.e.4&.e.emrfqfff6f6ff6fzzz***zzz6qfl4=>>>5>>>>k%k3bs=,B:u4=y3ybDDbV33>>>ss,>>>>5>>5=fjz666zz**zlz*z66zzzz6f66*1..e.eo.eme.:f",
"z*i.e.e.e.e4..mfqz6fz6ff6zz6z**z6zf66ffo5>>>>>>>>k%333>0=4f4oNb3yV33333bb>>>:=>D,>>>55>5=<@z6fzlz*zz**zz6zzjzz6f&meeeee.g.e..:4z",
"zz<.e..4e.e.4.m<6zf6ff6ffffzzzzz666qf*g55555>>>>>>%%333>Vs:4Dsb3ab3Vb3bVy>3>D0>>>>5555>55=f*z6fzz*fz*zz6fzz*<ffzeimm..4.e..4.gCz",
"z*ig.4.m4.4.e.mm6z6fz6f6f6fzzfzz6f66z755555D>>>>c>k3>333>>ssVy3y333003>3b>>>D>>>>>5s555055=zjz66***fzz<f6zl*zf66im<m4...re...:Cz",
"zz&.e.em.e.4.4re6z6f6f66ff6zz<f6fzfze5:0555>>>>>>k>>>>333aVb33ybaa3yb3bb3V>sD>Do>>>55555s=5=zjffzfzz<fz6fzzzfffflimi.e4emm.4.g6z",
"fzm...4e..4..em6qzf6f6666f66zzz6f6zi55==555>>>>>c%>>V33ybyyyybyayay3ayVVyV30>>>D>>>>>5>=5555o**zzz<6zzz666zzz66f6mierAm..4...:Cz",
"zzi.4..4.4.e4mXCqz6ff666fz6666z66ze.=555555>>>>>>>V>3yDo4=v===:vvvvvo4v:o<Db>>>>>>>>>>5555soe4zjfzfzfzz6ffzf66f66rAAA&..ee.4.gCz",
"zzmo.e.mg.4..pz6Cf66666f666ffz66z<.5555555;>>>>>>>>3+=sV=DbV0D0+++V0,,b0,v=vbV>>>>>>>>5555eoo.o*@zzzzzzzzzzzz6ff6*A&eee..4...g6z",
"z*r4e.......4mf6C6C6f66zff6f6ffjrg555555y5>>>>>>+>3>g0bbb3y33y3bbbybVV3V0Vb=D>>>>,>>>>5555o7:..4jjzfzzzzfz66*6q66*i.....4g...:Cz",
"zziee.4:g:.eemz6fzq6fff6z6fz66zji5555s0=g5>>>>>>>>>:DV333333a33bby333y3=gs>b>>>>D:>>>,5Ds=geeo..ej*zz<fzz6fzf66j6zm.........:gC*",
"fzie..gme...4mz6z@66f66f6f66qzjre=5555grrg>>>>c>>>,=V>>33333ab3bbyy3abVD00sgD,>>,o5>5ssem.5or4=..<j*fzz66zzzzqz@6*A....4o4...g6*",
"zzm4g.omog...mz6zx66fff6zf66fjro555..55ejp=>>>>>>:oV>3>333333b33ybb33Vb>Vgeo>0>>==,>Dom*4=5.m4g5..i*jfzzfz<fz6z@6*<....4me4..o9*",
"zfieg.o9e...4mX6z@6fz66f66q6jp4=5s.gs555=i&D>>c>54:>3333333y3333a3b0bVb0==o4>>>D>sgs>oXg5555=:.5=..l*j*z6zzzzq*@6zm...4rrrm.:ofz",
"zzmeg.geo=.4emzCf@f6zf666Cf*pm.55.=e=5555=:s>>>>,>D>>>33333y33aay3b:V3ys=3sV>>>>DD>50=g5=555>55=o4&:zjjz6zzzfqzj6fAe..mrApp&.:Cz",
"zz&eg.=&o...4mz6z@6ff666C6*r4g.=.55Ng>5555sg5>>v>3>>>>>333abbbVVVVVvD33bV3>>3>>>>5>5Ds5555>555:.o44eoz*z666zzqzjqzi..epArppeogCz",
"fzieg.gmg=..4mzCz@6ff6669*pm:55.4=5g55>>5>5:0>.>3>>>>>b33330:7lBNNNX=y3>V00>3>>>>D5>D=>5>>55555=.eee.ezjzffz<qfj6fm:.emempre.g6z",
"z*ieg.gmg..4mmf66*C6f66fzpree=..:..oo55>>>5s>5>3>>>>>+V3ybb4x@@***j@&03yb=V33>>>>>,5==>>>55555555....4ez*z6zfqzj6zA.....om4.ggCz",
"zfmeo.o&g,emrrzCMCq6f66*Aigee..=.5.5.555b=4>55>>>>>>V==>>V=@*fCqqq6Cz7V3b00b>V>>>>0==:=>>D55.=5.5s4g...izzzzj6666zi.....ee..egCz",
"zzieg.oX.=mrmmz6C66f66*p&e.:.==..:455s5glmgo5>>>>>+>>Ds=DD*zf66666f6C*4VDDv=sV>>>>>>,==s>55>5.=.554e....ezA**6666*&.....4e..4oCz",
"zz&eg.gm=.emm&mfqff6f*pm:.:ee5.4ge<e555gpo:g>>>>>>>VVDg&g**6fzffffzfC6j=Nm7l4=,gD>>>>g==5>555555...g.:...l*j*6ffzAe.....4mg.eoCz",
"fzm4g.omo=..eemm6666*@&.4<ie=...eeeg5>Dlmo4>>>>>>>>DDs=:&*ffzfzef6ffzzfjil=Do===D>>>Dsggs=D5555.s..oee....l*j*66A4g.....4e..4o#z",
"zzieg5:re4e4mm&mf66*@m.=4eeg...:mme.504&o4g0>>>>>>>+D=so*ff@jzzz6ffz@jf*r<Dsl:=sD+=D>>5:go:=5555...:5...44e***z6Ae..4...4e..eoCf",
"zfmo..ememrerrmi**zpmv=.gmg...4mmoo5>omo45>sg>>>>>>Ds:o*zzjjjzf6f6f6f*jfzpo4gD=gggomo>>5oo:55s555..4e:.o&..4**@@tA......4m..4oCz",
"zzio:.omogeeem&mrrrm4g.geeo..:empe.0om=&5>>Ds>>>>>+D=4*zCzzzzz6f6f6q6zz62zio=g&e==oe4>>>54=g5o=s5..oeeoe.g..oirrpr&:eo..4m.4poCz",
"zz&emem&.s..oemmrpr.=.=mmg...ormog>=&:mr=5>>D>D>>+D0De*C66666*z6ffzf66666qz=0s=gs>sgg:=5D&&o:D=5s.4&.e5g.geo..mlm&e.....4pmpXgCz",
"fziomrmgeo5:erpm&r&=.:ee:eoegmre5>=roo4==5>>>0>+>>>Ve*66zf6fzzz666z66fffz6fre=:=DD=e&os5>>eoggeg..4.e..:goe4e4em&mm4.:..:e4ee=6*",
"z*io4eeg5.=emmm<&.=5=omo.mo..g.5>sm4ore==5>>>>>>>VDo*6666f6fzz66ffz6fz66z6qfj:ggeoogo>s5>>=mo4eg55......=.eeeemrmire....5.emg=6z",
"zfi.....,5=mremm.=.=4mm.sg.4...5=mmoeg=55:=0=>V>>DojfC6f6f66zf6f6fzf66zf6f6Czioolmos0=o:5s==&oe=gl4eoo4:goeoe.&ieeeeo..,.eXro=6*",
"z*i.:o..5gom4gm.=:g:m<m4.5oe,.5=tpom.=5===ss>>>>0g*XCqfzf6ffzzzzf6z6fz6f66qCqfeoo4lgomeegeg>:&oo:eim.gegeomem4&em4em.4o55geeeeC*",
"zjigm.5.5=5:g.5=5=eemr<AAg=gogDmr&p:>55D5s>s>>>>=z*6z6Cf66f6zz6zzjzz6f6z*6Cz6fz4o:ge&m:g55s==er4o5oegog&emprmoem<o.ore55....eo6*",
"fzm4ee..:=55ees:g=mprprm<m5=esmp4rm=55555=>>>>DDr*6*@f6f6f6f6z6z66zi6fzzz6q*jff<&g=gego5D=5=5srmee=em:eerrrrmm&&o.5.&&=.5.:=eof*",
"zzieem:5.=55=g5=go&e&memti..sot&ee5s:55D55>>>Do9jz***fq66f6f6z6zz6666zzzzzqfz*6qii==&==0==5:==4mm&ee&m.rAmmo4e.ogg4egee.55me=:C*",
"zfrreo.5..55:oge&me.gee&mememrm4e5=5=5:=DD>>0,rj66j*zq66666ffz66z6zf666z66q6z*z2f<o=:go=555=:===mmreg.Apee.5.ee&m&mmgg555.4o5=6*",
"z*rre:=.s.4..eompo4..&.e..mrrme1esg55D=5s=D>soj9qCq6Cq66666666ffffzzi666f6ff666qq6mos=:==5>555=55&prrmA&o...g.g&erpp.55.555.5s9*",
"z*prmmmg55=sDo&rrem&mr&&.gorro&e=e==o:55D=5Dg*zq666Cq66C6666ffzij66f66zfzz66f66f6Cz&o=s5=D5so=5ssormpAiAeemm&e.m<r@4D5s55.5.5=fz",
"fz&rrpr.=4o4=eprAmpppptpregmrgeogeo,o==D5=s:*zM66C669q696966ffzzz6ff66f6fff6z6fz666<m=s05so&&=5m4:m4meg==&em&&g:iee==lm=555,5D6*",
"zzrmom45=CCBgemme&tprm&te54rAiegeogeg=s55=:mzMqf66#qfzfz666qzf6q2q66f6f66666fzzzzz6Cmo=sD54e=s:=g=geme55gem4geoommo5v66=55.55=fz",
"zzpig..==C2Berrgempm&ggA<.mir&oe9eeeg==5D:&*q26f66666fz66C6ff6qqCqz6q6zf6<6f6z*f6f6q6m4=>>=5sDgggs.=og=r<ee==oee:e45:66s55555sf*",
"zzig=:emofCBerr..4p&oi&eeAeirioerrmg=:D=:e@66626666zf66666CCf62q2l7qq6f6fz6f6fzjz66fC6mo=5sD===:=D.sgg5=ges554e55=&5:6fD55555s6*",
"*zegAm.=:f64=rpg=rimm&megerpegoor&ee=g:go*66**C66ff6666666Bq2qMfCC2qzqq6f6fff6zz*qz**6fm:==:==:gD5=5oo555go=:pe55oe5=zz=55>55=6*",
"fze=&A:o4eresmp4omi5=meAo.irg=oer4moggoop*z@*zq6f9666666CMMqCfC6q6fqCCMzzz6zff6666fjjzCee:===:og=5.=mpo555:ggrg5seo5=m&=55555D6z",
"*z4=orego==s=&pp4g&e5g:eeere=.:eerrrmoor*6*zz6q6666ff6666MMqqC666qfqqq26*jjz6f66z6qzzzqqX4==:go=55D==r&.5555555=ee=555=555.55D6j",
"jzo=omig=:ogoomm&mAeo.5.mtrg:ggooepprrm*CC66qC6C66f6zCCCCf6Cfff666f6f6ff6fzzz666zz6qC6C26r4g=g=5555=:=o4=5555.=mro5555>V50V>>D6j",
"f*e:ipAm=g<&o4r4mrprA<eerro=.55go:rrpr*q66Cqq6C696zfzzffffzf6f66666ffzzz***zzzzz6z66qq6fqfregg=5555D.=5.44=og4mpp4=555yy>bbb>Df*",
"z*Ae4ppreeppmmpm&&pttpmeroee5555&em9r@Cq66666Cq6qfz*z*z*zzzz66CqC6ffzj**j@jjzjz*66f666f66Cfpm4m4..5se455gomppr4e4g5555bb>bbb>s6j",
"6zig=4<oge*r4&mogeprie=ggsmg5555gm9pj*fCCCCC6qCCCCqqq6qCqq6qC6qqCf6CqC666fzzz666z6qqCqCC6qzxxpm=5..:A&g===:om4g=555s55V>0>V>>s6*",
"f6ee=gogoemAeee&ggeoe4==.=gg5555oer************fzzzz*j**jzzzzz*z**z**z****@jjz****z*******jzzrro5555=g55:===4g===5=5s=5=5=5=5=zz",
"jl.i...e...4e..e...er1eg&55=5.=5=rpfffzzfzzfzfzzz666f66*z666z**zj***zfzzz**j*zjjzzzfz*fzzzff6r1e=:s55.555..=5.=.=s==.:===s==s=l*",
"<4555554:55555o5555o<A<...5:5s:oom**fz66f66666666ff6fff66fffz****zzfzzfz*zj1*zzjzfff6zz*zz*zz@p44eee.=5555:o==5555555555555555BX",
"55o6NBgggoe===s=5555555ee==:em&4:g:gggggggg===B:=vv7Bll7f6vuu0>>>bvvvn:Be:==D0D5555=55555s5=g5=.om4.=55sgge::4=v=o5555=N55555555",
"554oN7B77le:BBg=s=vgB774loNB4744oN777777777BB:BBvvuvBl*q6BMuv0>>>bv2vv2q6Bv7vsDDs=0==0======s=g=.ggeo=:eeg...5ee5:=5555555555505",
"55=zl7N7N7N7N4NNNeN6N7NeNNNoNN7NleN7N7N7N7NB7777BBvvB:77vvB2,>b0bbv2B:Bq6qqBvvBB========s=====5==..g=.4&:55=.g&g5555555555555555",
"55.*fzzzzz6f6zefele<ell<ililz<rili<leilleilell7N77B77NN67B667>y0bVnf666z6fz6676z7lllilllilllllll4lmemm<rii*ilr@ree4oNNNNNNNB=5V5",
"55.f66666f6666667B6NN76**fllr<o77NeN777777B:==v==nvvvvv22uM27>a>ybB6B$2qvB6NvvvBBqB666B7N777N776f6f6f66z6zz6f6z*7N7N7NN66666*=55",
"55.i66flz7NNNNNNNNN7llNel<oge55=5=.=55555555555550D:==vuuvM2N>abbbD76:$2uvBq222B:B6677Nf6Nzl7flN76z6N6zf66ff7f666fNNN7N7N76fz=>5",
"55.iNN6ff767477N77N7lelgge=5555555555555555555555>0==DDDnun2N>yVDVVBf6vvn=vBvuvBBv:BBNllNN7NN7N74liN74eNlN7l4oN4N7e7Ne777gezz=55",
"55:iN666NNNg7NN7NN7ogg7=g&=5555555555..55555555550DD55=00+227bab0yVNBvvvvg===Duv=s===7eNg7ll7goNgge4gol74o4e4ggggoe477Nggg7zi55.",
"50giN6fl74ogo7N6N7eggge=g45555555s55..55555555555>>>>55>V0u2NVy>bb0i62uuug=D:DDDs=====7g=g.g=geeg==go4&ogg.gee==5..5=gggog76z=05",
"55.iNf6XoN7eNN647gg==oo.5.5og5555=.55555;55;55;55b>>5>>>b0uC7bayyb0mf2Bv=DDso=0>==55555ge.55.g.5o55=o&meee..ge.555.5555=g77z*:D5",
"55.<766eNN7N74oggg.4og=5.o.g.55;5.B.5555555D55D55>>>55>>>0s24>a3bb0l66l7==D=7=0>==55555ge=5=5gg5.555.4&4e4=5.4..5...5555=g76i=55",
"55.iN6fNgggogg=..5.eg=.5Bo5555.B555555;D55555g555V>>5>5>>D,:N>b>b>>4e<<gD05=sgD5gs555s5geo5555..5s.5o4ee.eg.=&...5.:5.55s=7f<=55",
"55:iN6leg=ggg=5.=5..5554&.55.57o5555555555555==55>>5555>>0s:N>Dsb>Vmg=o=D505DD=555555555555ggg555..=.4..55.o..g555oAoie5==B6<=5=",
"55.iNoiiggg=gg.4o..5.5.=&..555gm.5.5.55555;5555555>5555b>>sB7>0=>>>4=Ds0D555>>>D555555555.ggeeog.5..55.5555...4.5.&iAAi.55=fi=55",
"55.iiN7g.=g..==.55..555.55.o.5.4555.555.55555555;55555555>0vl>0:>>>o=0>D05555>55555;55;55.g.mieo..v55.=.5........oieiA:.s5=l*.D5",
"55.il7Nggg=5.5.:...=.4=4=.5445:=..5.....5555555555555;55>50=e>>s>>>o::DD55555D>555555555s....o:..=.5.55.......:.5....4.555=li=5.",
"=5oifNge4......5..:m44.mm......=:5.5....5555;5555s5555.5>>>=lD>5>>>ov=005.5555D555555s55....5..:4.44....:.............5.55:li=5.",
".5.<l7eig.......5...ee.4.=...s.5...o.....5>5D5555s555>5555s=l>>0D0>4=sD0s5555555.5555555:...5:&....e...................555=7<=55",
"=5.il7<<g......5........5..4.ee..:.&.5..5.55555;D5ss555ss>==lsDege,olooe=Ds555555;5555D5......4................55........5sNi.D5",
"55:iNleee=gg..5.....4e4......eegg=g4==.s.s.=555555g=555555D=&=D:=o=mi<g4====55;5.D55;5.55.....ggeg....og...v...5........55=7<g=5",
"5sepeiNlo4go:.:&:o.4pme.,..:4e.....g.::.:===s=s=s=55505555D=l5==5=:i<4Doe=555555555.5vg......:eeee..:ere................5557i.55",
"55ej*jf*jl44ogoeoeooeogggeomgo:..........5.5.5555=5555==s5D=l5Vg:Dg<i&ggog:7gs::s=s.:g:.::o.:=eo4&4m&oee:44:&#::ov::v:::=vgei.D5",
"=5.<zzzz*fel&el4&ml4mrmel&4pm&&oo4o44oo&o=No:g=:g7g===l:===B7=>>0>=4zeelN7ll6fz*lgggg7ogiizel&m*****&l4&r&mmpAe&&m&&&&e&&o7fl.55",
".5.&flllleiellllillmlille&<milllllml4llllll77l7NNN777l77B6qq::s=0>5:NN6B:oll77l77777llo7eeNlolmi<&li44eeeieieeee&eeo&eeme447eg==",
"5=NlillNeill<pi44o4<&e&4&AAo4eoo444&&4o4o:oN7ggggoNo<g===llB7=sD00=B7N77==:g==7oog====..5gg=.ee4...o.....ee.....g......4...glo5.",
"5:eiileliAioeee:=g.giemgoo=g.:.:o4ig=::=:g==========g=======BlD>D=B74=giNggg===eg5.555g=5gi=5.......e..eeeem.eo...........5=el==",
"o7ll7eoieo<e.:.g.&4.&g.e.4..g....&e..g..g.====.=55=5555:N=:=gi7g4f&go==:o=oooe5=55g55=..5ggg.4.4..ee.g....me..........4e..:.4ifN",
"le4o47eioe4.gego:oo...:e...4i...g....o...5555555557g55=7o5gB:llollo=5Dsg4==:o455sgggs7..=...4m&e.&e.em..4.4.:.g..o..:.4..,=.gell",
"z7gggoo=5=========4eg=o====oo===============5D5s=Dg=5D7s50Degegg7====sDD==5====geg=g=g==.===:.e..eoo:g:gg==gg:g::4,==,==e======g",
"<ieeee.4re4e:4Am&mm<Aeerm4m&4m&44e4e44e4.4.:4e..:eeeNgoggoo<i<ieog&Aioooe&eo:.4elee.e.44444eimrArmmm&&&me&rmeeerAe.eee&emee.4e.4",
"go=.=:5=o=5=sDg=&==e<=5gg=&s5====55=5=55s==5=gs:gg===0>D5D=NDs=:0ggg=B::B7:==sD4o==5=.5..g.....ii.:ogg=gg==g5==o&eg55==s5===5=:g",
".4...5..4..4=g..rger<.=...e.......4......:...:.ii=555555555iggeB74gigvg==4o4o5=l<=g....4.eh4.e.iA&iee&...e.e.&mAp&....e....4..&e",
"....==o.4egAo=4geeee.gA&g..eg.:.=.e.,.=.,..=55oNNg5555555s5D5gi<e=g====lee:g=vg74g.......e....m4..&m.....eeogmpeog.=....:.,...4i",
".....=4....reoi.eegg=.ee.g&&.....:.......=..:g7le755s55555eee5gilgg57Nee=:go==gii......4h.....&A..er.e.go.em&AA<io..s.......er.i",
"4eo=Ds==5=4eeo4=g=eegDsgg5s5g:ss=5=5=5s==55=5==BB=D55>050577gD===gD0guvsDDs=D5===5555..ee..g....=.o.gg==,s=4==g774=555,=5ss5=g.g",
"1prrAr1rrApptpprprtp1rppArA<A<AArArrArrArrAirAiA<<Aiiiii<Ai<AiAeiiiii<r<<i<iiA<<i&ir<rp1rr1rrArArArAA<ArAA<AAAAApprArAArA<rA<AA<",
"88888d8 8dd d888888888888888888888x88xxxxx@@@@@@xxx888xxxxxxxxxxxxxxxxxx8x8xxxxx@j@@xx@xxxxxxxxx888xx88888888888888888888888x8xx",
"ttxxxxxxxxx88xxxxxxxxxx@@@t@@@@@@@@@@@@j@j**zj***j@@@@@@jjjjjjj*j**j*j*jj@@j@j**zz*jjj**j*@@@@@@@@@@@@@@t@xx@@xxxxxxxxxxxxxtttpp",
"1ttxxxxxxxxxxxxxxx@@@x@@@@@@@@@@@@@@@*@@@@**jj*j*j****jj****zf*j***z**j*j*****zj**@@@@j@@@@@@@@@@@@@@x@@@xx@@@jxxxtxxxxxxtxx@ppp",
"xxx8x88xxxxxxxxxxxtttt@@@x@@@@@@@@@@@@@@@@**jjjj@*j**j*jjj**jzjj*zj*zj@*@*****jjjj@@@@@@@x@@@xx@x@@xxxxx@@x@@@xxxxxxxxxxxxxx@x@t",
"xx8xxx88xxxxxtxxtxtx@x@@xx*@**@xx@z**X****&l*Xzzz*fzzzzzfzzz66zzzzzzzzzz**z**z***f**********@xxxx@*@@*@xx@@@@xxxxxxxx8xx8x@***j*",
"tx8ttttx8xxxxxxttxxt@txxx@*pp*x@x@*jrrpptpzirz*z****z****j*zzzzzf*jzz*z*jjj*jzj@**@@***jjjj@@@@@@@@@@*@xxx@xx@xxxxxxxx88xx@@p@*@",
"-x8-ttttt88xxxxxxxxtxxxxtt*ppp@**@**rrrrjAm<*i**ii**zz***f*zz6zzzzzz***jjz**zjj@j**@jjjj@@*t@@*@**@@@*@@xxxxxx8x8xxx888xxx@pppp@",
"t--xttjttx88xxxxxtxtxtxXt@*p*pp@@@@pmrrrrr*i*ze<<i*zfjzj**zjzzzjfzzzfj<jj*jj***j*j*j@*j*@@*@@@@@@@@x@*@x@txxxx8xx8xxx8x@@x@*pptx",
"--ttxtxttx@xxxxx@@@@xxxp@@rrpppp*t@*rrrr*r<*Aiif<ii<<jiiij*zz<**fjj6fz**j*zjjjjjj*zj@j@j*j@@@@@@@@@@@*@@@xxxxxxxxxxxxxxxxx@Xpt@t",
"ttt1txxtj8xx8x@@*p*@xxx@ttrptp****p***rrm<i<i<e<i<Xzeijijz*Afz*zjjzz66zj**j*zzjj*jj@j*@@@@@@@t@@@@@@@*@@xxxxxxxxxxxxxx8xxx@ppx@@",
"1tt1ppttxx@xxt@t@Xtt*xx@@@Xp@p*@@**rAAprAAi&i<Xi<<ifii<iiiijzfj*zjjzzzz**zzfzjjj@jj*jj*j@@@@@pt@@@*t@*@@x@@@xx@@xxxxxxxxx@@ptttx",
"-x1pprpj@@**tt@@prpp@xxxttrApm@xxx*jApppAr<X*ilr<X<iii<<<<zAij*fjjzf6zzfzi*z*jj***jjjjj@@@@@*@xtxx*@@*@xx@@xx@@@xxxx@@@xx@*ttjxx",
"xx@@tr@x*pXrtpp@tprp*p@@xtrrpmj**@@pmjp*ire9ile<erze<jjrizi<zf<<lz<ll<ffjzzffAz***j*j*j@*@@*@*@@@x*@@*@xx@@@@txxxxx*t@@@@@*tt@x-",
"@@@t*f@@*rrrrmX@@pppppp*@xrpAjr**rrrm<rr<&lell7iliX<irzilllllll7ll77Nlz69fzfej*z*izj****@**********@@*xx@@@@@@xxxx@t@@@@@x**t@@@",
"xxxx****prr*m&mppp@rptp**@@@@@**j*p**zjj*7z<*z9z*jj***zz*zzfzlzlzj66z**zz*zj***zjjj*j*j***x@@*@@x@@xxxxx@@x@@ttx@x@@*p@*@x@@@ttx",
"xxxx@***prrmm<<*p*pprpppp*@@@@t@@@@@*j@@@jj****jjj**jjj@*zjj****jjzfjjj*jjjjj@jj@@@jj@@jj@@@xxxxxxx8xx@**@t@@txtt@@tp**p@@@xtx@x",
"*r*@p*rm<rrm&<iX*pp*p*pXp*XprXprrrpp*rrp*Xf99f9iiiziiiiilili6#zi<i6zlizzi*zz*jz**zjj**j*@@@@@@@@xxx@@@*rp@t@*tt@t*tt*Xp**@@*@t@@",
"prr**X*<mXlz#<i<***r*pprrprrprrrrmrrmlmAr&&elllil<il<<<<illlellii<779ii*ifeli*fri<pj***r*p@@*@*@@@@@@*r@@pp@txtttt@tX*rXp****p*p",
"tppp*zz#zzf99X9eX*j**prrrrmmrprrrmrrXli<Xl<le9le<rli<ill<i<lBll7lf47llijzilfi<eii<p**j**j*pX@**@******Xt@@pptt@Xtpptpr*p*pppp**p",
"tprrrzfzz9z6rXeffX****rrm&rrrrrXrXm<el<eleleXllf<*i<i<i<ll<e7lli9eB7e<iillijrXf<<Xrj**mr*jprr*p@*p*Xppp@@tt@@pX1rXpp*Apptpp*ppp*",
"pX9Xzfzz6#e6999#zzz*zrrmmliXXr9rXm<il9elel9C7C#eXii7liillel<l7if&eB7Nlllile<i<**XXi<9iXX<m<m**@*Xj@*rrrprpp@@**pr*r***ppp***pp@p",
"z6fzff66f6666f6q6zzzfj*f6C6zzzX*Xzfzz6f6q66qq6666fq7f6l6l666qq6666q6q6667q6zz6zzfz*z*zzzz6f6zz***zX*Xz**Xz***Xz**Xz*zf****zz****",
"pppppAAAAAppppAAAAAAApprAAA<A<AA<AAAAAAAAiAm<AA<i<i<<<iiif<XiXr<liilel<<f<i<iiei<iAAAAA<AAAAArAAAAAAAArAArAprAprAAA<Appprrrrpppp",
"4e4&leeeielieeoo7oeoooooeeeeeeeeeeeeoeeooooo=4o4g====g=gg::,,,==Dsss0,v:::o===sgggggeeeegeeeeeeeeeee4eeeogggoeegooogooo4eoeo&44&",
"eeeeiptpppppree<j<<4e4.4eee&ieieeeeeeeee.e.4.e&<io==....ggg==Doo=555=oiieli<g==7eg..eoeeeeeeeeeOeO&OeOeO...e.&imiie.e4eeeee4eem&",
"&im4<AAAArAppAi*jAAAOmii&i&ii&m&iO&iOeee4e4m&.eeee.==.....go.gele.=..oeoN4o4:=ggogg.e.eii&eO&&i&&i&i&i&im&mOrAAiAA&miOmOeiOie&<i",
".4.e.4e4eeeie4e4ee&eeeeee.&.e.e.ee.eee.e.....g==s=v=========DDs0Ds=:===s=:gg==DDD==D=g...e.ee.e...e...e.4.4eeeieeeeeee4e.4&e.eee",
"AArAAAAAAA<11AAA<A1<A<ArArA<ArArArArArArArAAme&eeee&mlml444eoeeee4i4i4e4gee4e&ieeeee4irArArArAArAArAArAAAAAAA1AArA<ArAArAA<ArArA"
};
