/* XPM */
static char *result[] = {
/* columns rows colors chars-per-pixel */
"128 128 36 1 ",
"  c black",
". c #2F371F",
"X c #473323",
"o c #3F2B1B",
"O c gray23",
"+ c #2F1B0B",
"@ c #1B1B1B",
"# c #131313",
"$ c #232323",
"% c #1F170B",
"& c #272727",
"* c #2F2F2F",
"= c #533F2F",
"- c #474F33",
"; c #2B230F",
": c #170F07",
"> c #0B0B0B",
", c #434343",
"< c #5F4B37",
"1 c #0B1707",
"2 c #332B13",
"3 c #372313",
"4 c #574333",
"5 c #775F4B",
"6 c gray31",
"7 c #070707",
"8 c #373737",
"9 c #171F07",
"0 c #4F3B2B",
"q c #67533F",
"w c #3F2F17",
"e c #000017",
"r c gray28",
"t c #4F3B27",
"y c #6F5743",
"u c white",
/* pixels */
" .XoOOoo+@@#@$@#%o&*&=&#@&=&-$O;  .X@@*@##@oOOoo:@#@@$&o#@oo*$O;  .XOOoo+@@#@$@#>>##>>oo&@@#@$O;  .X@@*@##@oOOoo:@#@@$&o#@oo*$O;",
" .Xoo=oo*@#@@$@#@o&@$o&#@oXo=$O;  .X@&,@>#$oo=oo#@@$@@&@#@oX&$O;  .Xo=oo*@#@@$@#>#>>#>&$@@#@@$O;  .X@&,@>#$oo=oo#@@$@@&@#@oX&$O;",
" XX$oX&&*@@@@@@@@Oo$*o&@#o<Oo@O;  XX&&*@1#$$oXX&&@@&@@@@#@&oo@O;  XXoX&&*@@@@@@@>>#>:>&$$@@@@@O;  XX&&*@1#$$oXX&&@@&@@@@#@&oo@O;",
" *Xooo@o$@@#@@@@#X&&OX*#@&<<&@O;  *X2&*@>#$oooo@o#$@@@$$#&X=&@O;  *Xoo@o$@@#@@@@>>>>>#o&$@@#@@O;  *X2&*@>#$oooo@o#$@@@$$#&X=&@O;",
" .XoXO&3&@@@@@#@#Xo@==o##&45@@X;  .X&&*&>#;oXOO&3:$$@$$@#@X6*@X;  .XXO&3&@@@@@#@>>>>#>o*@@@@@@X;  .X&&*&>#;oXOO&3:$$@$$@#@X6*@X;",
" ;XoXX&3$@@$@#:@@oO#oXX@>3=<@#X;  ;X2&*&7#$oXXX&3#@*$&&@#@&<$#X;  ;XXX&3$@@$@#:@>#>>>#&o@@@$@#X;  ;X2&*&7#$oXXX&3#@*$&&@#@&<$#X;",
" ;O&oo+*+@%$@##@@86>oO=@>@o<@#X;  ;O@&*&#9@&ooo+*#@*&$2&#$&3##X;  ;Ooo+*+@%$@##@>7>#>#$+$@%$@#X;  ;O@&*&#9@&ooo+*#@*&$2&#$&3##X;",
" .XOo&&o&##;&#:@@o<>o=o@##o<##X;  .X@&$*>@$Oo&&&o#@$&$@o:&*$o#X;  .Xo&&o&##;&#:@#7>###*&$##;&#X;  .X@&$*>@$Oo&&&o#@$&$@o:&*$o#X;",
" .4oo3&3&@#@$##%$oX#oXo$>@=<@#X;  .4&&#0>@$oo33&3:$@8$$O@@&@o#X;  .4o3&3&@#@$##%#>>#>7*&@@#@$#X;  .4&&#0>@$oo33&3:$@8$$O@@&@o#X;",
" ;4&O*$3$@@@@:##@oo@&OX&7&o4::X;  ;4&0#*#@@&O**$3#$#o&$<$>@$o:X;  ;4O*$3$@@@@:##@>>#>#3$;@@@@:X;  ;4&0#*#@@&O**$3#$#o&$<$>@$o:X;",
" .<ooo&;&$@@$##@@&@@&o=*>3X4##X;  .<@X#&#@$oooo&;#$@$o@X:oo$&#X;  .<oo&;&$@@$##@:>###>;@#$@@$#X;  .<@X#&#@$oooo&;#$@$o@X:oo$&#X;",
" .qooO$@$%@@@###@&@@@=X$7o4<##X;  .q&*@$>@$ooOO$@>@#3o@o#Xo&o#X;  .qoO$@$%@@@###@7#@>>&@@%@@@#X;  .q&*@$>@$ooOO$@>@#3o@o#Xo&o#X;",
" .qooX$@&#%$$##@@o@$@o4$>&=4##X;  .q&*@@7@@ooXX$@#@@$3@O:*o&o#X;  .qoX$@&#%$$##@#>>#>#&@@#%$$#X;  .q&*@@7@@ooXX$@#@@$3@O:*o&o#X;",
" .q3XO@@*#&$@##@@o@$&X=$>*X<##X;  .q&o@@>@@3XOO@@#@@@&$O#oo&$#X;  .qXO@@*#&$@##@@7##>#$$$#&$@#X;  .q&o@@>@@3XOO@@#@@@&$O#oo&$#X;",
" .qo=o@$&@$@$@:@#oO@$&4$>oo5@@X;  .q&07&#9$o=oo@$>@@$o+o#oo&&@X;  .q=o@$&@$@$@:@#>>#>>%$$@$@$@X;  .q&07&#9$o=oo@$>@@$o+o#oo&&@X;",
" .qooO@$$$@$$%#@@$X>@o6$>$o<@%X;  .q@87@>@@ooOO@$#@#&X$o#o*&*%X;  .qoO@$$$@$$%#@#>###>$$&$@$$%X;  .q@87@>@@ooOO@$#@#&X$o#o*&*%X;",
" wqoXo#2&$@@$@>@@@<>$o<$>&=<@@*;  wq&=#&:@$oXoo#2>@@$o3&@o3&&@*;  wqXo#2&$@@$@>@:>>###$@$$@@$@*;  wq&=#&:@$oXoo#2>@@$o3&@o3&&@*;",
" .qo=o@$&$$@@@##$&4>$o<&7&<=#@X;  .q&<7@#@$o=oo@$#@@*O&3$=&&o@X;  .q=o@$&$$@@@#######>$$&$$@@@X;  .q&<7@#@$o=oo@$#@@*O&3$=&&o@X;",
" ;qo=&@$&&%$@@>:$o8>@&4o>$=X@@*;  ;q&07@>#;o=&&@$#@#OO&oo5&o&@*;  ;q=&@$&&%$@@>:>#####&$$&%$@@*;  ;q&07@>#;o=&&@$#@#OO&oo5&o&@*;",
" .<3o*@3*$@$@@##@33>$*4*7+X=#@X;  .<@0#@>@&3o**@3#@#OOoo*6oOo@X;  .<o*@3*$@$@@###>####$$$$@$@@X;  .<@0#@>@&3o**@3#@#OOoo*6oOo@X;",
" .4$oo#$3$$$#@:#@+$##*=*7+o<#@X;  .4@07&:@$$ooo#$#@#+O3o@=&&o@X;  .4oo#$3$$$#@:#>#####@$*$$$#@X;  .4@07&:@$$ooo#$#@#+O3o@=&&o@X;",
" .,o3o@o&&@@@@>#@&X##oo=>@o<#@*;  .,&*#%>@+o3oo@o#@>&=oo#X$$&@*;  .,3o@o&&@@@@>#>#####@@*&@@@@*;  .,&*#%>@+o3oo@o#@>&=oo#X$$&@*;",
" ;O23&:o&$@#@@>:$*o#@*#<@@=<>@*;  ;O&<7@>%&23&&:o@##&O&oX3&o&@*;  ;O3&:o&$@#@@>:#>@>>@#*$$@#@@*;  ;O&<7@>%&23&&:o@##&O&oX3&o&@*;",
" ;,o&O#o$@@$#@>#$o&#@<><&>=<#@*;  ;,&=##>@Xo&OO#o%##&$&XXO+*o@*;  ;,&O#o$@@$#@>###>#$@@$@@@$#@*;  ;,&=##>@Xo&OO#o%##&$&XXO+*o@*;",
" .,oo*@+$@@@@@>#$oo>#<#Oo#o4$@*;  .,&&@@7@Ooo**@+###*oX$XX$&&@*;  .,o*@+$@@@@@>#>#7#$&@*&@@@@@*;  .,&&@@7@Ooo**@+###*oX$XX$&&@*;",
" ;,o$=@@$$@@$@#>@&o#$<#oOeX4&@X%  ;,&&@@>@oo$==@@#@>&o=&oo+&o@X%  ;,$=@@$$@@$@#>##>>@$@$$$@@$@X%  ;,&&@@>@oo$==@@#@>&o=&oo+&o@X%",
" .O+o=@$@@@$@:##@&o$&<#$*:4<&:X;  .O&&7@7@O+o==@$#@>+&ooOX*&&:X;  .Oo=@$@@@$@:##>@>##@&&@@@$@:X;  .O&&7@7@O+o==@$#@>+&ooOX*&&:X;",
" .,&X=$$$$@$@###@3o@&=#@+#=4$#X;  .,&@#@>@X&X==$$#$7@*Xo=oo$&#X;  .,X=$$$$@$@####@#>##$@#$@$@#X;  .,&@#@>@X&X==$$#$7@*Xo=oo$&#X;",
" ;O$oo#$&@@@@##>@$o$$<7@&>X<&#X%  ;O2@@@>$o$ooo#$#$>@oooXo&$&#X%  ;Ooo#$&@@@@##>#@>###@@@@@@@#X%  ;O2@@@>$o$ooo#$#$>@oooXo&$&#X%",
" ;,$oO#$*@@@@@##@$o$$47$*>o5&@X;  ;,&@@@>$&$oOO#$@@>>$Oooo&&o@X;  ;,oO#$*@@@@@####>>#@$$@@@@@@X;  ;,&@@@>$&$oOO#$@@>>$Oooo&&o@X;",
" ;O$oX@;o@@%@@#>@$o@*<>&O>o<o@X%  ;O&@@@>$3$oXX@;@@>>*oXo*$&&@X%  ;OoX@;o@@%@@#>#@>#@@&@#@@%@@X%  ;O&@@@>$3$oXX@;@@>>*oXo*$&&@X%",
" ;,$Xo&$o&@@@$>#@&o:*57+o#=<o$*;  ;,&@:@>$$$Xoo&$@@>#$&ooo+**$*;  ;,Xo&$o&@@@$>##@#>@$%#$&@@@$*;  ;,&@:@>$$$Xoo&$@@>#$&ooo+**$*;",
" ;,&oo@$*&$#@@##@*&@*<7@o#<=*@X;  ;,*@@@>;$&ooo@$$@>>$&==&&&o@X;  ;,oo@$*&$#@@######@@@#@&$#@@X;  ;,*@@@>;$&ooo@$$@>>$&==&&&o@X;",
" ;O$3o@@o@$$$@##@&X#$<>@o@=XO@X;  ;O&&@#>@$$3oo@@$###*oX4&&$o@X;  ;O3o@@o@$$$@#####>@@@@@@$$$@X;  ;O&&@#>@$$3oo@@$###*oX4&&$o@X;",
" .OooX@@o@&@&@##@$X@&<7@&@X=O@X;  .Oo&##>$&ooXX@@$#>:&oo<*@&o@X;  .OoX@@o@&@&@##@####$@@#@&@&@X;  .Oo&##>$&ooXX@@$#>:&oo<*@&o@X;",
" .,o&O%@o@$@&@>#@$o@X<>:*@o<6@*;  .,&&###@oo&OO%@$:>#+$o=3;&O@*;  .,&O%@o@$@&@>#@@##@&@@#@$@&@*;  .,&&###@oo&OO%@$:>#+$o=3;&O@*;",
" .Oooo@@O$@@&@#@#&3&o57#$@o<=@X;  .O&&@#>@$oooo@@$###$*=4&$$=@X;  .Ooo@@O$@@&@#@@###$&$@@$@@&@X;  .O&&@#>@$oooo@@$###$*=4&$$=@X;",
" .O&&O@@X@$@*@#%#$&oo<>>&&&5o@X;  .O&&@##@$&&Oo@@@@>#$X==&$$=@X;  .O&O@@X@$@*@#%####@O&&:@$@*@X;  .O&&@##@$&&Oo@@@@>#$X==&$$=@X;",
" ;,*oo@;X#@@*@###@$OoO>#&$&<&@X;  ;,&&@##@$*ooo@;@@>#@6o=o&#<@X;  ;,oo@;X#@@*@#######&@&@#@@*@X;  ;,&&@##@$*ooo@;@@>#@6o=o&#<@X;",
" ;OX&O@$X#@@X@>#@@&X&X>#&&o<$@*;  ;O2&#@#$@X&Oo@$%>#@@<X=o&><@*;  ;O&O@$X#@@X@>#####@@&&@#@@X@*;  ;O2&#@#$@X&Oo@$%>#@@<X=o&><@*;",
" ;,o@o@$X#@@o@:#@$*&$o7#3&o5&@X;  ;,&&#@#$$o@oo@$$>@@@o=OXo>5@X;  ;,@o@$X#@@o@:#>##@#$&&##@@o@X;  ;,&&#@#$$o@oo@$$>@@@o=OXo>5@X;",
" ;,O@*$@X@@@&@>#$&oo&$>#$$O<&@*;  ;,&&@@#@$O@*o$@$#@@#&o=X&7<@*;  ;,@*$@X@@@&@>###>#@$&$@@@@&@*;  ;,&&@@#@$O@*o$@$#@@#&o=X&7<@*;",
" ;,o@X@@o#@$&@##$&&X&@##$@=O&@X;  ;,&@&@#@&o@Xo@@3#:##$X=*$74@X;  ;,@X@@o#@$&@#######@@$@#@$&@X;  ;,&@&@#@&o@Xo@@3#:##$X=*$74@X;",
" %ro@X$@o@$&o@>@@$$oo###$@oO*@*;  %r&9$@#@oo@Xo$@+##@#+==&$7<@*;  %r@X$@o@$&o@>@>###@$@&#@$&o@*;  %r&9$@#@oo@Xo$@+##@#+==&$7<@*;",
" ;ro@X$@&##$&$#@@+&oo#@#&@OoX$X;  ;r&@&@:@*o@XX$@$#@@#$=o&o7<$X;  ;r@X$@&##$&$#@>###@$&*@##$&$X;  ;r&@&@:@*o@XX$@$#@@#$=o&o7<$X;",
" %,*@X+@X@@$o+e@@*$*&#:#*&O=O+*;  %,&@@@#%X*@Xo+@;@%+:@$O4$76+*;  %,@X+@X@@$o+e@#@##@@$$@@@$o+*;  %,&@@@#%X*@Xo+@;@%+:@$O4$76+*;",
" %,+:o$@3@@&&$>$@o@oX@##*&X<X$*.  %,@7$&##X+:oo$@+$@$#@$o4*>O$*.  %,:o$@3@@&&$>$####@@$@@@@&&$*.  %,@7$&##X+:oo$@+$@$#@$o4*>O$*.",
" ;O@:X+@o@@@&$#$#$&$o&#>o**Oo$X.  ;O@#&$:@o@:Xo+@+&:@@@$=4$&+$X.  ;O:X+@o@@@&$#$>:###@@&@@@@&$X.  ;O@#&$:@o@:Xo+@+&:@@@$=4$&+$X.",
" ;O@>X$%X@@@X$>$#$X&o*>>***=*$*.  ;O#@$&@@X@>Xo$%3$#@@@o*=3*#$*.  ;O>X$%X@@@X$>$>####@@&@@@@X$*.  ;O#@$&@@X@>Xo$%3$#@@@o*=3*#$*.",
" ;X##*&@o&@@&+#$:$Xoo*>>*$O=&+X.  ;X#@&&#&&##oo&@$$>@@$o*=o$>+X.  ;X#*&@o&@@&+#$7##>@#**#&@@&+X.  ;X#@&&#&&##oo&@$$>@@$o*=o$>+X.",
" ;X@@Oo@X@@#$&:$##o&o&#>*&4&o&X.  ;X@@$&#$*@@Ooo@+@#:#*O8=O@#&X.  ;X@Oo@X@@#$&:$>#:#@&$&:@@#$&X.  ;X@@$&#$*@@Ooo@+@#:#*O8=O@#&X.",
" ;O#;oo@o#@$*&#@@#O$oo#>$o=$O&X;  ;O@@&&#$@#@ooo$$$##:&OoOO$>&X;  ;O;oo@o#@$*&#@>##$$&$&>#@$*&X;  ;O@@&&#$@#@ooo$$$##:&OoOO$>&X;",
" ;X:$o&+*@$&3@#@@:&*&o#>&84#O@X;  ;X#@*&#o#>@$o3$$@###$oO=o&>@X;  ;X$o&+*@$&3@#@>#>&*@$&#@$&3@X;  ;X#@*&#o#>@$o3$$@###$oO=o&>@X;",
" ;O#$Xo@o@&&$$#%>>$X$o>#$OX>*$X;  ;O@@&&#o##@$o3$$&>#@&OO=X*>$X;  ;O$Xo@o@&&$$#%>##&&$$*#@&&$$X;  ;O@@&&#o##@$o3$$&>#@&OO=X*>$X;",
" ;X#$=o@X@&*$*@$>#$o*o>#&o4>O*O.  ;X@:8&#o@##$o$$$$>@@+=X&<*>*O.  ;X$=o@X@&*$*@$>##&$$@*>@&*$*O.  ;X@:8&#o@##$o$$$$>@@+=X&<*>*O.",
" ;X:@=O@3@&*$3@$##@o&*##*OO>=3O.  ;X@#&2#o#>@2=+$+%##@$XO@X$@3O.  ;X@=O@3@&*$3@$#>#@@@&&>@&*$3O.  ;X@#&2#o#>@2=+$+%##@$XO@X$@3O.",
" ;O>@Oo$;@&*o&@3##>O&3$#oX=>O&Oo  ;O#@&&#O#>@3O@@$$#@@$Xo@@#X&Oo  ;O@Oo$;@&*o&@3##@#$@&$>@&*o&Oo  ;O#@&&#O#>@3O@@$$#@@$Xo@@#X&Oo",
" ;X#@=&@$@8$$o$+#@7=*#3#@O=>*oO3  ;X#@&@#O#>#$o@;+@##@&oX#@@ooO3  ;X@=&@$@8$$o$+###@&@&&7@8$$oO3  ;X#@&@#O#>#$o@;+@##@&oX#@@ooO3",
" ;X:&43@$@*$&$@$#$>=O#@#>=o>=$O.  ;X@@&@:O##:$X$*+$#@#2&X>$@&$O.  ;X&43@$@*$&$@$@#@#$$$&>@*$&$O.  ;X@@&@:O##:$X$*+$#@#2&X>$@&$O.",
" ;X>3O&@+$*&*&$;@$7O8##@>4X>#&O2  ;X@@&&:*#>#3O#3+$>##&&o>o@&&O2  ;X3O&@+$*&*&$;@#@@&&$$7$*&*&O2  ;X@@&&:*#>#3O#3+$>##&&o>o@&&O2",
" ;X#$Oo$;@&*oo@+$$eo@7o*#=X@:oO3  ;X#@&&#o$##&o#$$$@#:*oo>=#+oO3  ;X$Oo$;@&*oo@+###&**@&>@&*ooO3  ;X#@&&#o$##&o#$$$@#:*oo>=#+oO3",
" ;X>$=o@@@$$&$@+&&#$#>Xo#==@@$O3  ;X#@&&#3$>%=*#+o$@#:+O&>=@@$O3  ;X$=o@@@$$&$@+>##$&&$*>@$$&$O3  ;X#@&&#3$>%=*#+o$@#:+O&>=@@$O3",
" ;O:$XX@;#&@o&$3$$@@>#oO#==$#&Oo  ;O#@&&:o@##*o#@o$###@O&><*@&Oo  ;O$XX@;#&@o&$3>@@#@&$&>#&@o&Oo  ;O#@&&:o@##*o#@o$###@O&><*@&Oo",
" ;O#@oo$&@*$&$@$$%&#>$OX&O=$#$O.  ;O#@&&#o##@3X:@$$#:#@O&#=o*$O.  ;O@oo$&@*$&$@$:#@@@$@&#@*$&$O.  ;O#@&&#o##@3X:@$$#:#@O&#=o*$O.",
" ;X#$**$o#*$**@+@#$##@oO&O=@#*O3  ;X@@&&:=###oX@@$+@##@o$>=O**O3  ;X$**$o#*$**@+@@@&&@$&##*$**O3  ;X@@&&:=###oX@@$+@##@o$>=O**O3",
" ;O#$Oo$$:$&o$$$$#@##$XO@O=##$O.  ;O##&&#O#>@oX#@o$@>#@$&>O4$$O.  ;O$Oo$$:$&o$$$#@#*&$$*>:$&o$O.  ;O##&&#O#>@oX#@o$@>#@$&>O4$$O.",
" ;X#@oo+;#$*$&$$@#::>@4O@X=>@&O.  ;X@#&&#=#:@2*#@o+#@>;&$#3=@&O.  ;X@oo+;#$*$&$$@@#$$&@*>#$*$&O.  ;X@#&&#=#:@2*#@o+#@>;&$#3=@&O.",
" ;X#@&o$$#&$$3$$&####$=O@o=@@3O.  ;X@7&&@=##@&o:@o@@@>@o$#$4@3O.  ;X@&o$$#&$$3$$:##@$*@&##&$$3O.  ;X@7&&@=##@&o:@o@@@>@o$#$4@3O.",
" ;X:@2*$2#@*o&$$$####@6=$*X@%&O.  ;X##&&#O##@oo:@3$%#>$$@#@<#&O.  ;X@2*$2#@*o&$$:@#$@&@&##@*o&O.  ;X##&&#O##@oo:@3$%#>$$@#@<#&O.",
" ;O>@oX$$#@**$$+%####:oX&$=@@$O3  ;O:@@8@O##$Oo:#$@@##@$$##<@$O3  ;O@oX$$#@**$$+###@@*$*##@**$O3  ;O:@@8@O##$Oo:#$@@##@$$##<@$O3",
" ;O##oX*@>@*&&@$$@>#:#**@&=@$&O.  ;O7@@*@=@#$**:@@#@#>$o@#><#&O.  ;O#oX*@>@*&&@$#@$#@*&&#>@*&&O.  ;O7@@*@=@#$**:@@#@#>$o@#><#&O.",
" .X#@3X&@>@*&2;+@@>###o&$$O#$203  .X7@@*@X@#@oo##$@o>#$&$9#<#203  .X@3X&@>@*&2;+@$@#$$&&@>@*&203  .X7@@*@X@#@oo##$@o>#$&$9#<#203",
" .O##*o&$:@&o&*+$#>###o&&$o#$&r3  .O7##*@X$:$XX#@$#$>:$&3@>=@&r3  .O#*o&$:@&o&*+:$#@@&&$@:@&o&r3  .O7##*@X$:$XX#@$#$>:$&3@>=@&r3",
" .O>%=*&;#@&o$3+$#>###o*&@&#$$=3  .O7#@*@=&>$=o#@$#+##oo&@>4@$=3  .O%=*&;#@&o$3+:@#@&$@@##@&o$=3  .O7#@*@=&>$=o#@$#+##oo&@>4@$=3",
" .O##&o&$@@@o&$$$@>:>#O*&$o>&&O.  .O7#@8#=$#$Oo#@$>@@:o*o@#=@&O.  .O#&o&$@@@o&$$####&@:$$@@@o&O.  .O7#@8#=$#$Oo#@$>@@:o*o@#=@&O.",
" ;O>#3O$%@#@$$+o$@>:>#O&O@o>+$to  ;O7##&#X&>3O&#@$#:@@+**@#X@$to  ;O#3O$%@#@$$+o:@@#@#@o*@#@$$to  ;O7##&#X&>3O&#@$#:@@+**@#X@$to",
" .X#:$X&$$#%*$@o$@>###OoO$o#@$Oo  .X>##&#*&:&43#@@@##@@o&$#o$$Oo  .X:$X&$$#%*$@o#@##@#@$&$#%*$Oo  .X>##&#*&:&43#@@@##@@o&$#o$$Oo",
" .X>#$o$$$##&$@$$$##>#OOO@X$@$O.  .X7:@&#o$#@=&>@@#@#@@*&*#o$$O.  .X#$o$$$##&$@$:@#@@@@$$$##&$O.  .X7:@&#o$#@=&>@@#@#@@*&*#o$$O.",
" .O>@3Ooo&@>oo@$+$#>##OoX&<*>oO.  .O7#@*#o3>@Oo>#$>@>@$&*o#o$oO.  .O@3Ooo&@>oo@$#$@#@##@$&@>ooO.  .O7#@*#o3>@Oo>#$>@>@$&*o#o$oO.",
" .O>@2=o$$@#oo@o$@##>>O&OXX*>oOo  .O###*:o*:@=O##$###$&&o&@$&oOo  .O@2=o$$@#oo@o#&@:@#@@&$@#ooOo  .O###*:o*:@=O##$###$&&o&@$&oOo",
" .O##$oo*@@#&$@o+&@>#>8*O=o&>$Oo  .O7##&#&&#$=o>#$>:#$$o&$@@*$Oo  .O#$oo*@@#&$@o@$#@$>@@*@@#&$Oo  .O7##&#&&#$=o>#$>:#$$o&$@@*$Oo",
" .o#@$oo3&$#X*@o@&@>#7ooo=O$>*Oo  .o###@#%&#$Xo##o>@#@*&o$@@$*Oo  .o@$oo3&$#X*@o@$@#@>#@$&$#X*Oo  .o###@#%&#$Xo##o>@#@*&o$@@$*Oo",
" .o>@$oo*$&@oo@3$&@>#>*O84O@#oOo  .o7##@#$&:$o&#@$>#>$oo&&@@$oOo  .o@$oo*$&@oo@3@$$#$>@&*$&@ooOo  .o7##@#$&:$o&#@$>#>$oo&&@@$oOo",
" .o#@oo$o&&:*$#$@*@#>#@6*oo$>$X.  .o##7@>@o#;oo@@;#@7$*o&$$#&$X.  .o@oo$o&&:*$#$#@@@@>#$@&&:*$X.  .o##7@>@o#;oo@@;#@7$*o&$$#&$X.",
" .o#@&o*o$&#o&@@#o##>##4*o3*#&O;  .o7@#@#$*@@Oo@@@#%e$&o$@$:o&O;  .o@&o*o$&#o&@@#@@$*>#*$$&#o&O;  .o7@#@#$*@@Oo@@@#%e$&o$@$:o&O;",
" wX:##@oo*$$3$#$@$@:###==&$&+$X.  wX7##@#&&##*&$;@@@7@&*&$$:3$X.  wX##@oo*$$3$#$#@@$$>#&&@$@3$X.  wX7##@#&&##*&$;@@@7@&*&$$:3$X.",
" wX#:#@oX&$@*3@$#$@@#>>=oo*>O3O.  wX>##@#@X@>X$$$@@@>@oo&@@#*3O.  wX:#@oX&$@*3@$@@@&$>:@&$$@*3O.  wX>##@#@X@>X$$$@@@>@oo&@@#*3O.",
" oX:@#@&oo$#o*@$#&@@#>#=Oo$76*O.  oX#####@o@:X+$@@@@7$*o$@$#X*O.  oX@#@&oo$#o*@$$&&$@>#@$@&$o*O.  oX#####@o@:X+$@@@@7$*o$@$#X*O.",
" XX###&X=&o#$&@$>$$##>#6o&o7<&O.  XX7@@@##X+:o$$@@%@7&X*$##@=&O.  XX##&X=&o#$&@$@@&*$>:$&@@&$&O.  XX7@@@##X+:o$$@@%@7&X*$##@=&O.",
" oX###@X6*+#$o@$#$&##>>O=&$7<oO.  oX7@9@>%X*@X++@@#@>$oo&@@@XoO.  oX##@X6*+#$o@$#@&8@##$$&@&$oO.  oX7@9@>%X*@X++@@#@>$oo&@@@XoO.",
" XX:##@&<$3#o&@@@&$>:>>O=*$74&O;  XX7#@@#@*o@X$$$@#@>@@3*@@$X&O;  XX##@&<$3#o&@@$@**##>$@&&&o&O;  XX7#@@#@*o@X$$$@#@>@@3*@@$X&O;",
" oO###$&3#X>$$@@#$&>#>#==X&7<$O;  oO7@#@#@oo@X$$@@#:###&o$:3X$O;  oO##$&3#X>$$@@;$+8###@@@$$$$O;  oO7@#@#@oo@X$$@@#:###&o$:3X$O;",
" .O@#:&*$oX>o*#$>&$#>>#4OXo>5*X.  .O7@@@>@&o@X@$+@####&o$$#+o*X.  .O#:&*$oX>o*#$$$@&#####@@$o*X.  .O7@@@>@&o@X@$+@####&o$$#+o*X.",
" .O@#@@&@o=:oo#$#&&##>#4=o&><oX.  .O7@#&#@$O@*$+$@###eoX$$#$ooX.  .O#@@&@o=:oo#$@@@*###@@@&$ooX.  .O7@#&#@$O@*$+$@###eoX$$#$ooX.",
" wO@#$>@$oo#&*#$>$$@>>>O=o&#<*X.  wO7:#&>$$o@o@@$@#>##$&&$#@&*X.  wO#$>@$oo#&*#$&%@&####&&&$&*X.  wO7:#&>$$o@o@@$@#>##$&&$#@&*X.",
" wO@#:oo$&o:2&#o>&@@#>>$=&$$=&Xo  wO#:#@#$@X&O@@$@:>##@o&3#@o&Xo  wO#:oo$&o:2&#o&@@&#>@#$8*&2&Xo  wO#:#@#$@X&O@@$@:>##@o&3#@o&Xo",
" wO$##Xo&o&@&&@$>$@@>>>&4&$$=&O.  wO#@#%#@$*oo@@@@#:#:@Oo$#@&&O.  wO##Xo&o&@&&@$@@@&#>##$***&&O.  wO#@#%#@$*oo@@@@#:#:@Oo$#@&&O.",
" w,&#:*o&o&$&o@;#&$@#>7&=3;&OoO2  w,7@@#:@$&&O@@@##>##@&*#@#&oO2  w,#:*o&o&$&o@;$@@@#>@#@@@$&oO2  w,7@@#:@$&&O@@@##>##@&*#@#&oO2",
" .,&##oo&$X$o&@@#$$@>#>$<*@&o&O;  .,>@#@#@$ooo@@@@@>##@o$##@$&O;  .,##oo&$X$o&@@@&&&@7@#@@@$o&O;  .,>@#@#@$ooo@@@@@>##@o$##@$&O;",
" oOX>#oo&&oo3.;@@&$@>>#$4&&$o.0;  oO#@@%#@oo&O%#@$#>##:X$&@@$.0;  oO>#oo&&oo3.;@$&$&@>##@$$$3.0;  oO#@@%#@oo&O%#@$#>##:X$&@@$.0;",
" w,3##o*&*oXo&$@@+$@:>>$=&&&o&O;  w,#@@##$&ooX@@@+#>:#@$&&@@$&O;  w,##o*&*oXo&$@@$#&@#:#@@$&o&O;  w,#@@##$&ooX@@@+#>:#@$&&@@$&O;",
" oO$#@o3&&==o&@@@$o:@>>@oo+**&O;  oO##@##@$$3o@:@+#>#>@o&%e*@&O;  oO#@o3&&==o&@@@$$$@###@&@$o&O;  oO##@##@$$3o@:@+#>#>@o&%e*@&O;",
" w,&>$=&&oXOo&@@%$o####&o*$&&&O;  w,##@@#;$&oo@>#$:###:X&$>o$&O;  w,>$=&&oXOo&@@@@&&$>##@$@@o&O;  w,##@@#;$&oo@>#$:###:X&$>o$&O;",
" w=o>o5&o&=4&2@@#$o>###$oo&&o2O;  w=##@@#$$$Xo&##$#>:#@o*$>X@2O;  w=>o5&o&=4&2@@@@$$$###@@@@&2O;  w=##@@#$$$Xo&##$#>:#@o*$>X@2O;",
" X4o:*6oOo=o*o$@#&o##>#+Xo&$&oO;  X4>$$@#$3$oX@##$@>:##*@$>4@oO;  X4:*6oOo=o*o$@$$&@@>>##@&$*oO;  X4>$$@#$3$oX@##$@>:##*@$>4@oO;",
" 84&#@=&&o=oo&@@#&o###>$=oo$&&O;  84>@@@#$&$oO##>+@###@$%&>=:&O;  84#@=&&o=oo&@@$@&$&>>#@@**o&O;  84>@@@#$&$oO##>+@###@$%&>=:&O;",
" t,&##X$$&oo&o+@#&$####&OX*&&ot;  t,#@@$>$o$oo#@>@@####&@@>=#ot;  t,##X$$&oo&o+@$@&$$>#@#$$$&ot;  t,#@@$>$o$oo#@>@@####&@@>=#ot;",
" t,o9X3&o&=*&o$@#$$#>#>@oo+&ooO;  t,#@@$>@X&X=$@>@$####$#@#X#oO;  t,9X3&o&=*&o$@&$&$&>#@@*&$&oO;  t,#@@$>@X&X=$@>@$####$#@#X#oO;",
" 84o#XO+*o=3$*$@#&&##:>@XX$&&*O;  84#@@@>@O+o=@@7:+@>##$#@#3#*O;  84#XO+*o=3$*$@&@$&*##@#&&#$*O;  84#@@@>@O+o=@@7:+@>##$#@#3#*O;",
" t4&@XX$&&=o$$$@:&&##:>#XO+*o$O;  t4#@@@#@oo$=@@##;@###o$@@o#$O;  t4@XX$&&=o$$$@$$&$&@:##$$@$$O;  t4#@@@#@oo$=@@##;@###o$@@o#$O;",
" o<$@oo+&o=o$&@@#$$@##>9X3&o&&O;  o<@$@@#@Ooo*@@>#@@#>&O@@@+#&O;  o<@oo+&o=o$&@@@&&$$@#@@$&$$&O;  o<@$@@#@Ooo*@@>#@@#>&O@@@+#&O;",
" oq$&OX*&&=*$$@##$&@#####X$$&$O;  oq#$@$#@Xo&O#@#>@##>@=+#$@:$O;  oq&OX*&&=*$$@#$@;###>##@&$$$O;  oq#$@$#@Xo&O#@#>@##>@=+#$@:$O;",
" oy@$=oo$&<&$$@@@$o@:#>#@=&&o$O;  oy:$@$>%&23&:@##@@>#@$+@$@#$O;  oy$=oo$&<&$$@@$@&@@@>##&&@$$O;  oy:$@$>%&23&:@##@@>#@$+@$@#$O;",
" .q@+Xo&$&4o&*@$#&3&###:*6oOo*O.  .q@%$&#@+o3o@###@@##@&&$O:@*O.  .q+Xo&$&4o&*@$$@&&&>###$&@&*O.  .q@%$&#@+o3o@###@@##@&&$O:@*O.",
" Xr@$oo&&o<*2&@+#o&$###>o5&o&&O3  Xr@$$@>@$$oo##7#@@##@3$oX>@&O3  Xr$oo&&o<*2&@+$@$&&#>##$*@2&O3  Xr@$$@>@$$oo##7#@@##@3$oX>@&O3",
" 0r#&o*$&&<*&$@+#&3&@>@>$=&&o$O3  0r@$@&e@&3o*@#>#$##:@$$o*##$O3  0r&o*$&&<*&$@+@#&&&#e#@@$@&$O3  0r@$@&e@&3o*@#>#$##:@$$o*##$O3",
" <r:@oo+**<*&$#$:$&$#>@#@o3&&$X.  <r@@&*>#;o=&@@>#@#:#$$$o&#@$X.  <r@oo+**<*&$#$@@*&@####$&$&$X.  <r@@&*>#;o=&@@>#@#:#$$$o&#@$X.",
" =,#$=&&&o4&&$#$#$&$@>@##o*&*$X.  =,$@$$>@$o=o@@>#@###%$$&*:#$X.  =,$=&&&o4&&$#$@:$$$#>#@*&o&$X.  =,$@$$>@$o=o@@>#@###%$$&*:#$X.",
" 0r#$4&&$oX@$&#$@&3$#>@>#oo&&&X.  0r$@@$>@$oXo#$>@@###&#@X$@@&X.  0r$4&&$oX@$&#$@@&&@###@$*&$&X.  0r$@@$>@$oXo#$>@@###&#@X$@@&X.",
" tr#$<*@&oo$$&>+@@*&@>@##oo&$&*3  tro@$$>@@ooO@@#@@#:#@:@*$&@&*3  tr$<*@&oo$$&>+@@$$@###@&$@$&*3  tro@$$>@@ooO@@#@@#:#@:@*$&@&*3",
" .<#&=3;&O<@$&>@@$3$@###:*o&o&*;  .<$@@$>9$o=o@$##@@>@@>@$@$%&*;  .<&=3;&O<@$&>@$@$&@@#@@$$@$&*;  .<$@@$>9$o=o@$##@@>@@>@$@$%&*;",
" .O#&4&$$=<#@$>@$@&o@>:##Xo&o$*;  .Oo##@#@@3XO@;@>:@#@&#@$@$@$*;  .O&4&$$=<#@$>@$$@@$##@%&$#@$*;  .Oo##@#@@3XO@;@>:@#@&#@$@$@$*;",
" 8X#$=&$$=<#@$7:+@&&&#:#:oo$&$*;  8XX$9@>@@ooX$@@##:#@@@@$@@#$*;  8X$=&$$=<#@$7:@@@@@@@@$$$@@$*;  8XX$9@>@@ooX$@@##:#@@@@$@@#$*;",
" t*#O=o&#<<@@$##;@*$$>##$>@$o$X;  t*o&#$#@$ooO$#$@##@@@@$o$@#$X;  t*O=o&#<<@@$##$$@@&@@##@@$@$X;  t*o&#$#@$ooO$#$@##@@@@$o$@#$X;",
" oX:4=o&><5&$$>#@@$&@###@@&@o$*;  oXX@@$#@$ooo&#@@##@@@@@*$@@$*;  oX4=o&><5&$$>#@$@@$@@#@@@&$$*;  oXX@@$#@$ooo&#@@##@@@@@*$@@$*;",
" X:#4OXo>56&@&#>@@&o@>:#:&*$o&#%  X:3$$@#@@&O*$#@@###@@#@3&#@&#%  X:4OXo>56&@&#>@@@@@@$$@@$$@&#%  X:3$$@#@@&O*$#@@###@@#@3&#@&#%",
">X##==X&7<<*@$##@@&X$#@##$&3#$#; >X#o$$*#@$oo3&##@####@@#&&@#$#; >X#==X&7<<*@$##@@@$@@$@@@$#@$#; >X#o$$*#@$oo3&##@####@@#&&@#$#;",
"@o@#O=*$74<*@$##@@+o+#:##@&<$$#; @o@=@&$>@$Oo&&>@###@#@#@o$@#$#; @o@O=*$74<*@$##@@@@@@@@@@@@@$#; @o@=@&$>@$Oo&&>@###@#@#@o$@#$#;"
};
